<?xml version="1.0" encoding="utf-8"?>
<svg version="1.1" id="Layer_1" xmlns="http://www.w3.org/2000/svg" xmlns:xlink="http://www.w3.org/1999/xlink" x="0px" y="0px"
	 viewBox="0 0 1920 1920" enable-background="new 0 0 1920 1920" xml:space="preserve">
<g>
	<circle fill="#007900" stroke="#007900" stroke-width="0.0938" cx="960" cy="960" r="960"/>
	<linearGradient id="SVGID_1_" gradientUnits="userSpaceOnUse" x1="689.1483" y1="260.425" x2="1456.34" y2="260.425">
		<stop  offset="0" style="stop-color:#BA8B01"/>
		<stop  offset="0.0438" style="stop-color:#CDAA37"/>
		<stop  offset="0.1121" style="stop-color:#E8D886"/>
		<stop  offset="0.1607" style="stop-color:#F8F4B8"/>
		<stop  offset="0.1847" style="stop-color:#FFFFCB"/>
		<stop  offset="0.2986" style="stop-color:#FFFFCB"/>
		<stop  offset="0.3078" style="stop-color:#FDF9C1"/>
		<stop  offset="0.3415" style="stop-color:#F5E6A0"/>
		<stop  offset="0.374" style="stop-color:#F0D989"/>
		<stop  offset="0.4043" style="stop-color:#EDD17B"/>
		<stop  offset="0.4303" style="stop-color:#ECCE76"/>
		<stop  offset="0.4892" style="stop-color:#A26F14"/>
		<stop  offset="0.6051" style="stop-color:#A26F14"/>
		<stop  offset="0.6074" style="stop-color:#A67418"/>
		<stop  offset="0.624" style="stop-color:#C19234"/>
		<stop  offset="0.6402" style="stop-color:#D4A848"/>
		<stop  offset="0.6558" style="stop-color:#E0B654"/>
		<stop  offset="0.6699" style="stop-color:#E4BA58"/>
		<stop  offset="0.6716" style="stop-color:#D9A94D"/>
		<stop  offset="0.6756" style="stop-color:#C38737"/>
		<stop  offset="0.6793" style="stop-color:#B36F27"/>
		<stop  offset="0.6828" style="stop-color:#A9601D"/>
		<stop  offset="0.6857" style="stop-color:#A65B1A"/>
		<stop  offset="0.6954" style="stop-color:#AA6222"/>
		<stop  offset="0.7104" style="stop-color:#B57637"/>
		<stop  offset="0.7287" style="stop-color:#C6965B"/>
		<stop  offset="0.7498" style="stop-color:#DEC38B"/>
		<stop  offset="0.7728" style="stop-color:#FDFCC9"/>
		<stop  offset="0.7741" style="stop-color:#FFFFCD"/>
		<stop  offset="0.7957" style="stop-color:#FFFFCD"/>
		<stop  offset="0.8468" style="stop-color:#E5BD5D"/>
		<stop  offset="0.8861" style="stop-color:#BB913B"/>
		<stop  offset="0.9116" style="stop-color:#BB913B"/>
		<stop  offset="0.9147" style="stop-color:#BE9337"/>
		<stop  offset="0.925" style="stop-color:#C39830"/>
		<stop  offset="0.9509" style="stop-color:#C5992E"/>
		<stop  offset="1" style="stop-color:#7F470A"/>
	</linearGradient>
	<path fill="url(#SVGID_1_)" stroke="#00CD0D" stroke-width="0.0938" d="M1123.28,111.35c3.89-2.08,8.47-1.45,12.71-1.51
		c66,0.05,132-0.02,197.99,0.01c23.75-0.22,47.53,0.41,71.27-0.32c17.28,8.92,34.19,18.56,50.86,28.57l0.23,1.06
		c-52.14,0.34-104.28,0-156.41,0.15c-53.3-0.06-106.6,0.04-159.9-0.05c-2.41,0.13-4.98-0.41-7.27,0.48
		c-103.58,59.78-207.16,119.6-310.75,179.4c-6.51,3.73-13.04,7.45-19.44,11.34c-0.64,1.66,0.76,3.62,1.08,5.36
		c4.87,15.27,2.67,32.57-5.45,46.35c-2.71,5.04-6.87,9.01-10.2,13.6c-3.94,2.42-7.39,5.54-11.45,7.77
		c-7.21,4.31-15.48,6.19-23.63,7.76c-5.02-0.51-10.1,0.04-15.06-1c-13.03-2.1-24.99-9.01-33.91-18.65
		c-11.31-12.84-16.75-30.58-14.17-47.55c2.39-17.07,12.84-32.77,27.66-41.59c13.67-8.39,30.89-10.58,46.28-6.18
		c7.51,1.92,14.2,5.95,20.5,10.31c2.56-0.5,4.61-2.35,6.9-3.52C901.84,239.21,1012.58,175.3,1123.28,111.35 M726.1,333.03
		c-1.74,2.1-4.21,4.28-3.87,7.27c-0.98,0.64-1.59,1.67-2.09,2.69c-4.86,12.79,1.06,29,13.49,34.99c6.38,4.16,14.86,4.77,22.14,2.71
		c10.33-2.8,18.67-11.85,20.53-22.39c2.61-11.31-2.79-23.79-12.49-30.06c-2.59-1.56-5.44-3.6-8.64-2.89
		c-0.29-0.28-0.87-0.85-1.16-1.13C744.04,321.84,732.84,325.21,726.1,333.03z"/>
	<path stroke="#000000" stroke-width="0.0938" d="M1137.41,142.52c3.54-1.98,7.69-1.49,11.58-1.51
		c51.35-0.04,102.7,0.01,154.06-0.01c52.49-0.11,104.99,0.24,157.48-0.17c15.02,9.17,29.82,18.71,44.25,28.79
		c-4.14,1.3-8.51,0.6-12.75,0.75c-114.01-0.04-228.02,0.03-342.02-0.04c-1.32-0.04-2.62,0.1-3.7,0.85
		c-9.23,5.53-18.62,10.78-27.91,16.2c-100.17,57.8-200.29,115.67-300.46,173.45c-0.95,0.43-2.04,1.25-1.29,2.37
		c7.47,19.13,3.61,42.04-9.58,57.76c-9.85,11.98-24.6,19.95-40.11,21.12c-13.11,1.22-26.58-2.22-37.48-9.59
		c-13.84-9.06-23.62-24.34-25.53-40.82c8.92,9.64,20.88,16.55,33.91,18.65c4.96,1.04,10.04,0.49,15.06,1
		c13.17,5.13,30.34-2.04,35.08-15.53c3.33-4.59,7.49-8.56,10.2-13.6c8.12-13.78,10.32-31.08,5.45-46.35
		c0.68-0.75,1.44-1.39,2.3-1.93C916.45,270.13,1026.96,206.37,1137.41,142.52z"/>
	<linearGradient id="SVGID_2_" gradientUnits="userSpaceOnUse" x1="1153.3419" y1="420.0837" x2="1672.01" y2="420.0837">
		<stop  offset="0" style="stop-color:#BA8B01"/>
		<stop  offset="0.0438" style="stop-color:#CDAA37"/>
		<stop  offset="0.1121" style="stop-color:#E8D886"/>
		<stop  offset="0.1607" style="stop-color:#F8F4B8"/>
		<stop  offset="0.1847" style="stop-color:#FFFFCB"/>
		<stop  offset="0.2986" style="stop-color:#FFFFCB"/>
		<stop  offset="0.3078" style="stop-color:#FDF9C1"/>
		<stop  offset="0.3415" style="stop-color:#F5E6A0"/>
		<stop  offset="0.374" style="stop-color:#F0D989"/>
		<stop  offset="0.4043" style="stop-color:#EDD17B"/>
		<stop  offset="0.4303" style="stop-color:#ECCE76"/>
		<stop  offset="0.4892" style="stop-color:#A26F14"/>
		<stop  offset="0.6051" style="stop-color:#A26F14"/>
		<stop  offset="0.6074" style="stop-color:#A67418"/>
		<stop  offset="0.624" style="stop-color:#C19234"/>
		<stop  offset="0.6402" style="stop-color:#D4A848"/>
		<stop  offset="0.6558" style="stop-color:#E0B654"/>
		<stop  offset="0.6699" style="stop-color:#E4BA58"/>
		<stop  offset="0.6716" style="stop-color:#D9A94D"/>
		<stop  offset="0.6756" style="stop-color:#C38737"/>
		<stop  offset="0.6793" style="stop-color:#B36F27"/>
		<stop  offset="0.6828" style="stop-color:#A9601D"/>
		<stop  offset="0.6857" style="stop-color:#A65B1A"/>
		<stop  offset="0.6954" style="stop-color:#AA6222"/>
		<stop  offset="0.7104" style="stop-color:#B57637"/>
		<stop  offset="0.7287" style="stop-color:#C6965B"/>
		<stop  offset="0.7498" style="stop-color:#DEC38B"/>
		<stop  offset="0.7728" style="stop-color:#FDFCC9"/>
		<stop  offset="0.7741" style="stop-color:#FFFFCD"/>
		<stop  offset="0.7957" style="stop-color:#FFFFCD"/>
		<stop  offset="0.8468" style="stop-color:#E5BD5D"/>
		<stop  offset="0.8861" style="stop-color:#BB913B"/>
		<stop  offset="0.9116" style="stop-color:#BB913B"/>
		<stop  offset="0.9147" style="stop-color:#BE9337"/>
		<stop  offset="0.925" style="stop-color:#C39830"/>
		<stop  offset="0.9509" style="stop-color:#C5992E"/>
		<stop  offset="1" style="stop-color:#7F470A"/>
	</linearGradient>
	<path fill="url(#SVGID_2_)" stroke="#00CD0D" stroke-width="0.0938" d="M1528.32,291.28c2.75-1.61,5.45-3.49,8.62-4.22
		c2.98-0.88,6.05,0.31,9.09-0.05c4.96-0.54,9.97-0.33,14.96-0.31c27.75-0.05,55.49,0.05,83.24-0.05
		c9.48,9.59,18.74,19.41,27.78,29.42c-26.33,0.11-52.66,0.03-78.99,0.08c-16.04-0.14-32.09,0.19-48.11-0.33
		c-14.46,7.68-28.41,16.37-42.71,24.37c-69.91,40.45-139.92,80.74-209.83,121.2c-8.48,4.51-16.38,10.23-25.34,13.78
		c0.56,1.73,1.12,3.46,1.67,5.21c4.08,16.91,0.69,35.56-9.87,49.49c-2.07,2.83-4.66,5.24-6.58,8.18c-5.05,3.39-9.77,7.34-15.37,9.82
		c-6.64,3.09-13.84,4.99-21.14,5.6c-11.06,0.44-22.31-1.78-32.02-7.21c-5.99-3.19-11.14-7.67-15.85-12.5
		c-4.66-5.9-8.9-12.28-11.24-19.48c-5.18-14.56-4.2-31.19,2.66-45.04c7.97-16.41,23.95-28.73,41.97-31.84
		c18.08-3.59,37.43,2.39,50.85,14.91c4.78-5.29,11.59-7.9,17.51-11.64C1355.84,390.85,1442.1,341.1,1528.32,291.28 M1187.25,479.19
		c-0.92,1.07-1.18,2.45-1.22,3.82c-0.77,0.61-1.35,1.37-1.74,2.27c-4.8,12.85,1.06,28.76,13.34,35.05
		c8.45,5.05,19.49,5.06,28.08,0.33c7.79-4,13.05-11.75,15.02-20.17c0.6-5.23,0.56-10.68-1.41-15.64
		c-2.75-7.66-8.91-13.77-16.28-17.04c-3.66-0.81-7.28-2.2-11.08-2.11C1202.12,465.53,1192.52,470.94,1187.25,479.19z"/>
	<path stroke="#000000" stroke-width="0.0938" d="M1541.18,323.2c4.31-2.31,8.57-5.89,13.79-5.2c39.51-0.34,79.06,0.03,118.58-0.22
		c8.52,9.5,16.92,19.12,25.02,29c-5.5,0.82-11.06,0.25-16.58,0.42c-40.99-0.13-81.99,0.25-122.98-0.18
		c-13.98,7.47-27.53,15.88-41.39,23.63c-72.47,41.88-144.98,83.7-217.46,125.57c-6.34,3.29-12.09,7.77-18.89,10.1
		c4.39,12.8,4.59,27-0.18,39.73c-6.12,17.09-20.64,30.85-38.02,36.08c-17.04,5.47-36.4,2.08-50.9-8.29
		c-13.21-9.25-22.03-24.17-24.3-40.08c4.71,4.83,9.86,9.31,15.85,12.5c9.71,5.43,20.96,7.65,32.02,7.21
		c13.63,5.39,31.47-1.29,36.51-15.42c1.92-2.94,4.51-5.35,6.58-8.18c10.56-13.93,13.95-32.58,9.87-49.49
		c20.56-11.51,40.84-23.55,61.31-35.23C1400.38,404.47,1470.81,363.88,1541.18,323.2z"/>
	<path stroke="#000000" stroke-width="0.0938" d="M734.25,332.21c6.46-3.64,13.7-5.43,20.92-6.86c3.2-0.71,6.05,1.33,8.64,2.89
		c9.7,6.27,15.1,18.75,12.49,30.06c-8.62-4.78-19.59-4.98-28.27-0.26c-7.34,4.05-13.52,11.41-14.4,19.94
		c-12.43-5.99-18.35-22.2-13.49-34.99c0.5-1.02,1.11-2.05,2.09-2.69C726.19,337.54,729.87,334.33,734.25,332.21z"/>
	<linearGradient id="SVGID_3_" gradientUnits="userSpaceOnUse" x1="208.49" y1="473.835" x2="762.3688" y2="473.835">
		<stop  offset="0" style="stop-color:#BA8B01"/>
		<stop  offset="0.0438" style="stop-color:#CDAA37"/>
		<stop  offset="0.1121" style="stop-color:#E8D886"/>
		<stop  offset="0.1607" style="stop-color:#F8F4B8"/>
		<stop  offset="0.1847" style="stop-color:#FFFFCB"/>
		<stop  offset="0.2986" style="stop-color:#FFFFCB"/>
		<stop  offset="0.3078" style="stop-color:#FDF9C1"/>
		<stop  offset="0.3415" style="stop-color:#F5E6A0"/>
		<stop  offset="0.374" style="stop-color:#F0D989"/>
		<stop  offset="0.4043" style="stop-color:#EDD17B"/>
		<stop  offset="0.4303" style="stop-color:#ECCE76"/>
		<stop  offset="0.4892" style="stop-color:#A26F14"/>
		<stop  offset="0.6051" style="stop-color:#A26F14"/>
		<stop  offset="0.6074" style="stop-color:#A67418"/>
		<stop  offset="0.624" style="stop-color:#C19234"/>
		<stop  offset="0.6402" style="stop-color:#D4A848"/>
		<stop  offset="0.6558" style="stop-color:#E0B654"/>
		<stop  offset="0.6699" style="stop-color:#E4BA58"/>
		<stop  offset="0.6716" style="stop-color:#D9A94D"/>
		<stop  offset="0.6756" style="stop-color:#C38737"/>
		<stop  offset="0.6793" style="stop-color:#B36F27"/>
		<stop  offset="0.6828" style="stop-color:#A9601D"/>
		<stop  offset="0.6857" style="stop-color:#A65B1A"/>
		<stop  offset="0.6954" style="stop-color:#AA6222"/>
		<stop  offset="0.7104" style="stop-color:#B57637"/>
		<stop  offset="0.7287" style="stop-color:#C6965B"/>
		<stop  offset="0.7498" style="stop-color:#DEC38B"/>
		<stop  offset="0.7728" style="stop-color:#FDFCC9"/>
		<stop  offset="0.7741" style="stop-color:#FFFFCD"/>
		<stop  offset="0.7957" style="stop-color:#FFFFCD"/>
		<stop  offset="0.8468" style="stop-color:#E5BD5D"/>
		<stop  offset="0.8861" style="stop-color:#BB913B"/>
		<stop  offset="0.9116" style="stop-color:#BB913B"/>
		<stop  offset="0.9147" style="stop-color:#BE9337"/>
		<stop  offset="0.925" style="stop-color:#C39830"/>
		<stop  offset="0.9509" style="stop-color:#C5992E"/>
		<stop  offset="1" style="stop-color:#7F470A"/>
	</linearGradient>
	<path fill="url(#SVGID_3_)" stroke="#00CD0D" stroke-width="0.0938" d="M208.49,362.67c8.38-10.58,16.97-21,25.87-31.14
		c1.53,0.35,3.09,0.58,4.66,0.67c34.34-0.12,68.68-0.04,103.03-0.07c3.68-0.02,7.64-0.35,10.92,1.7
		c70.2,40.59,140.43,81.12,210.67,121.66c33.55,19.5,67.32,38.64,100.75,58.34c9.44-8.02,21.1-13.59,33.52-14.74
		c18.36-2.01,37.56,5.4,49.64,19.42c7.89,8.6,12.63,19.74,14.46,31.21c1.46,13.84-1.51,28.24-9.37,39.84
		c-2.16,3.42-4.9,6.4-7.53,9.45c-7.07,6.55-15.52,11.77-24.81,14.47c-3.53,1.05-7.24,1.37-10.69,2.66
		c-3.19-0.52-6.43-0.18-9.63-0.41c-14.82-0.95-29.21-7.76-39.18-18.79c-8.59-9.25-13.98-21.37-15.25-33.92
		c-0.24-3.73,0.18-7.47,0.01-11.2c0.31-4.67,1.68-9.15,2.73-13.68c-100.75-57.99-201.36-116.25-302.07-174.31
		c-1.6-0.96-3.45-1.3-5.29-1.24C296.79,362.68,252.64,362.52,208.49,362.67 M677.24,545.07c-3.36,7.49-3.57,16.4-0.22,23.94
		c2.26,5.46,6.5,9.77,11.19,13.23c9.56,5.58,22.32,5.84,31.6-0.45c6.31-4.32,11.32-10.98,12.54-18.64
		c2.89-11.75-3.1-24.8-13.46-30.88c-2.09-1.12-4.31-2.78-6.79-2.28c-2.83-2.25-6.72-1.79-10.09-1.79
		C691.39,528.57,681.71,535.55,677.24,545.07z"/>
	<path stroke="#000000" stroke-width="0.0938" d="M185.71,392.52c7.37-10.12,14.98-20.06,22.78-29.85
		c44.15-0.15,88.3,0.01,132.44-0.08c1.84-0.06,3.69,0.28,5.29,1.24c100.71,58.06,201.32,116.32,302.07,174.31
		c-1.05,4.53-2.42,9.01-2.73,13.68c-0.32,2.46-0.51,4.93-0.62,7.41c-94.1-54.28-188.18-108.61-282.26-162.94
		c-2.5-1.29-4.78-3.43-7.7-3.61C298.56,392.51,242.13,392.82,185.71,392.52z"/>
	<linearGradient id="SVGID_4_" gradientUnits="userSpaceOnUse" x1="1567.121" y1="520.44" x2="1783.77" y2="520.44">
		<stop  offset="0" style="stop-color:#BA8B01"/>
		<stop  offset="0.0438" style="stop-color:#CDAA37"/>
		<stop  offset="0.1121" style="stop-color:#E8D886"/>
		<stop  offset="0.1607" style="stop-color:#F8F4B8"/>
		<stop  offset="0.1847" style="stop-color:#FFFFCB"/>
		<stop  offset="0.2986" style="stop-color:#FFFFCB"/>
		<stop  offset="0.3078" style="stop-color:#FDF9C1"/>
		<stop  offset="0.3415" style="stop-color:#F5E6A0"/>
		<stop  offset="0.374" style="stop-color:#F0D989"/>
		<stop  offset="0.4043" style="stop-color:#EDD17B"/>
		<stop  offset="0.4303" style="stop-color:#ECCE76"/>
		<stop  offset="0.4892" style="stop-color:#A26F14"/>
		<stop  offset="0.6051" style="stop-color:#A26F14"/>
		<stop  offset="0.6074" style="stop-color:#A67418"/>
		<stop  offset="0.624" style="stop-color:#C19234"/>
		<stop  offset="0.6402" style="stop-color:#D4A848"/>
		<stop  offset="0.6558" style="stop-color:#E0B654"/>
		<stop  offset="0.6699" style="stop-color:#E4BA58"/>
		<stop  offset="0.6716" style="stop-color:#D9A94D"/>
		<stop  offset="0.6756" style="stop-color:#C38737"/>
		<stop  offset="0.6793" style="stop-color:#B36F27"/>
		<stop  offset="0.6828" style="stop-color:#A9601D"/>
		<stop  offset="0.6857" style="stop-color:#A65B1A"/>
		<stop  offset="0.6954" style="stop-color:#AA6222"/>
		<stop  offset="0.7104" style="stop-color:#B57637"/>
		<stop  offset="0.7287" style="stop-color:#C6965B"/>
		<stop  offset="0.7498" style="stop-color:#DEC38B"/>
		<stop  offset="0.7728" style="stop-color:#FDFCC9"/>
		<stop  offset="0.7741" style="stop-color:#FFFFCD"/>
		<stop  offset="0.7957" style="stop-color:#FFFFCD"/>
		<stop  offset="0.8468" style="stop-color:#E5BD5D"/>
		<stop  offset="0.8861" style="stop-color:#BB913B"/>
		<stop  offset="0.9116" style="stop-color:#BB913B"/>
		<stop  offset="0.9147" style="stop-color:#BE9337"/>
		<stop  offset="0.925" style="stop-color:#C39830"/>
		<stop  offset="0.9509" style="stop-color:#C5992E"/>
		<stop  offset="1" style="stop-color:#7F470A"/>
	</linearGradient>
	<path fill="url(#SVGID_4_)" stroke="#00CD0D" stroke-width="0.0938" d="M1750,453.06c6.26-3.42,12.17-7.56,18.7-10.43
		c5.11,8.07,10.13,16.18,15.07,24.36c-6.27,4.48-13.23,7.88-19.83,11.83c-23.85,13.84-47.77,27.56-71.63,41.39
		c-3.17,1.88-6.9,2.27-10.5,1.97c0.84,3.91,1.53,7.84,1.9,11.83c1.51,12.31-1.7,25-8.06,35.58c-2.6,4.55-6.29,8.3-9.51,12.39
		c-6.7,5.38-13.94,10.32-22.22,12.9c-3.98,1.38-8.27,1.68-12.14,3.37c-2.54-0.71-5.17-0.42-7.74-0.48
		c-15.6-0.35-30.99-7.26-41.45-18.87c-17.68-18.37-20.52-48.72-6.89-70.21c9.21-15.13,25.57-25.77,43.24-27.59
		c18.64-2.27,38.19,5.2,50.45,19.44c0.41,0.79,1.92,1.85,2.38,0.47c2.64-5.52,8.71-7.64,13.59-10.66
		C1706.91,477.93,1728.46,465.49,1750,453.06 M1599.07,528.04c-2.35,3.03-2.42,7.2-2.7,10.88c-0.32,10.29,5.51,19.96,14,25.51
		c8.31,4.62,18.82,5.49,27.49,1.32c8.34-3.76,14.7-11.68,16.33-20.71c2.63-11.51-2.87-24.16-12.84-30.37
		c-2.25-1.25-4.58-3.05-7.26-2.75c-0.86-0.62-1.79-1.07-2.77-1.34C1618.37,507.77,1603.26,515.2,1599.07,528.04z"/>
	<path stroke="#000000" stroke-width="0.0938" d="M1186.03,483.01c10.36-8.64,23.32-15.14,37.01-15.2
		c7.37,3.27,13.53,9.38,16.28,17.04c1.97,4.96,2.01,10.41,1.41,15.64c-5.25-2.31-10.93-4.03-16.73-3.54
		c-12.63,0.71-24.54,10.69-26.37,23.38c-12.28-6.29-18.14-22.2-13.34-35.05C1184.68,484.38,1185.26,483.62,1186.03,483.01z"/>
	<path stroke="#000000" stroke-width="0.0938" d="M1691.97,525.91c31.48-18.12,62.86-36.45,94.43-54.4
		c5,8.37,9.79,16.86,14.52,25.39c-30.69,17.59-61.29,35.32-91.9,53.04c-3.83,2.6-8.39,3.98-13.01,3.33
		c2.7,10.99,3.3,22.7-0.06,33.63c-4.72,16.46-17.14,30.48-32.88,37.21c-16.37,7.31-36.12,6.31-51.71-2.51
		c-15.75-8.56-26.87-24.79-29.54-42.48l0.77-0.22c10.46,11.61,25.85,18.52,41.45,18.87c2.57,0.06,5.2-0.23,7.74,0.48
		c13.27,4.54,29.81-2.79,34.36-16.27c3.22-4.09,6.91-7.84,9.51-12.39c6.36-10.58,9.57-23.27,8.06-35.58
		C1686.75,531.57,1688.27,527.6,1691.97,525.91z"/>
	<linearGradient id="SVGID_5_" gradientUnits="userSpaceOnUse" x1="111.06" y1="570.315" x2="523.0425" y2="570.315">
		<stop  offset="0" style="stop-color:#BA8B01"/>
		<stop  offset="0.0438" style="stop-color:#CDAA37"/>
		<stop  offset="0.1121" style="stop-color:#E8D886"/>
		<stop  offset="0.1607" style="stop-color:#F8F4B8"/>
		<stop  offset="0.1847" style="stop-color:#FFFFCB"/>
		<stop  offset="0.2986" style="stop-color:#FFFFCB"/>
		<stop  offset="0.3078" style="stop-color:#FDF9C1"/>
		<stop  offset="0.3415" style="stop-color:#F5E6A0"/>
		<stop  offset="0.374" style="stop-color:#F0D989"/>
		<stop  offset="0.4043" style="stop-color:#EDD17B"/>
		<stop  offset="0.4303" style="stop-color:#ECCE76"/>
		<stop  offset="0.4892" style="stop-color:#A26F14"/>
		<stop  offset="0.6051" style="stop-color:#A26F14"/>
		<stop  offset="0.6074" style="stop-color:#A67418"/>
		<stop  offset="0.624" style="stop-color:#C19234"/>
		<stop  offset="0.6402" style="stop-color:#D4A848"/>
		<stop  offset="0.6558" style="stop-color:#E0B654"/>
		<stop  offset="0.6699" style="stop-color:#E4BA58"/>
		<stop  offset="0.6716" style="stop-color:#D9A94D"/>
		<stop  offset="0.6756" style="stop-color:#C38737"/>
		<stop  offset="0.6793" style="stop-color:#B36F27"/>
		<stop  offset="0.6828" style="stop-color:#A9601D"/>
		<stop  offset="0.6857" style="stop-color:#A65B1A"/>
		<stop  offset="0.6954" style="stop-color:#AA6222"/>
		<stop  offset="0.7104" style="stop-color:#B57637"/>
		<stop  offset="0.7287" style="stop-color:#C6965B"/>
		<stop  offset="0.7498" style="stop-color:#DEC38B"/>
		<stop  offset="0.7728" style="stop-color:#FDFCC9"/>
		<stop  offset="0.7741" style="stop-color:#FFFFCD"/>
		<stop  offset="0.7957" style="stop-color:#FFFFCD"/>
		<stop  offset="0.8468" style="stop-color:#E5BD5D"/>
		<stop  offset="0.8861" style="stop-color:#BB913B"/>
		<stop  offset="0.9116" style="stop-color:#BB913B"/>
		<stop  offset="0.9147" style="stop-color:#BE9337"/>
		<stop  offset="0.925" style="stop-color:#C39830"/>
		<stop  offset="0.9509" style="stop-color:#C5992E"/>
		<stop  offset="1" style="stop-color:#7F470A"/>
	</linearGradient>
	<path fill="url(#SVGID_5_)" stroke="#00CD0D" stroke-width="0.0938" d="M111.06,511.79c5.53-10.5,11.24-20.9,17.21-31.14
		c1.59,0.3,3.19,0.49,4.81,0.57c51.66,0.05,103.33-0.08,155,0.04c2.67-0.14,5.27,0.74,7.57,2.05
		c43.12,24.89,86.17,49.89,129.37,74.63c8.45-7.59,19.01-12.76,30.24-14.54c15.44-2.54,31.87,1.44,44.31,10.95
		c12.9,9.47,21.55,24.53,23.05,40.48c1.82,14.36-2.32,29.28-10.86,40.92c-2.05,2.89-4.64,5.33-6.68,8.22
		c-5.84,4.42-11.78,8.93-18.7,11.52c-5.03,2.11-10.45,2.95-15.65,4.49c-4.31-0.51-8.67-0.03-12.96-0.66
		c-13.72-1.56-26.83-8.13-36.11-18.37c-9.47-9.91-14.83-23.33-15.68-36.94c-0.37-7.34,1.05-14.55,2.89-21.61
		c-38.65-21.98-77.05-44.43-115.6-66.59c-3.26-1.73-6.35-4.44-10.26-4.21c-53.67,0.03-107.33,0.01-160.99,0.01
		C118.36,511.59,114.71,511.55,111.06,511.79 M438.19,589.14c-6.9,12.73-1.02,29.91,11.24,37.18l-0.14,0.24
		c7.32,3.47,15.8,5.14,23.71,2.64c10.06-3.03,18.22-11.8,20.15-22.18c3.19-13.79-5.49-29.31-19.15-33.29
		C460.55,568.42,443.42,575.56,438.19,589.14z"/>
	<path stroke="#000000" stroke-width="0.0938" d="M111.06,511.79c3.65-0.24,7.3-0.2,10.96-0.18c53.66,0,107.32,0.02,160.99-0.01
		c3.91-0.23,7,2.48,10.26,4.21c38.55,22.16,76.95,44.61,115.6,66.59c-1.84,7.06-3.26,14.27-2.89,21.61
		c-34.91-20.51-70.13-40.52-105.13-60.88c-1.24-0.6-2.42-1.63-3.88-1.51c-67.01,0.15-134.03-0.03-201.04,0.09
		C100.76,531.63,105.85,521.67,111.06,511.79z"/>
	<path stroke="#000000" stroke-width="0.0938" d="M1599.07,528.04c9.71-8.79,22.01-14.53,35.02-16.12c2.68-0.3,5.01,1.5,7.26,2.75
		c9.97,6.21,15.47,18.86,12.84,30.37c-7.97-4.69-18.12-5.02-26.5-1.25c-6.31,2.94-11.68,8.07-14.46,14.49
		c-0.95,2.05-1.33,4.41-2.86,6.15c-8.49-5.55-14.32-15.22-14-25.51C1596.65,535.24,1596.72,531.07,1599.07,528.04z"/>
	<path stroke="#000000" stroke-width="0.0938" d="M684.91,540.2c8.03-5.68,17.55-8.69,27.19-10.21c2.48-0.5,4.7,1.16,6.79,2.28
		c10.36,6.08,16.35,19.13,13.46,30.88c-6.96-4.18-15.75-5.07-23.43-2.45c-8.6,2.81-15.89,9.8-18.53,18.53
		c-0.49,1.21-0.45,3.03-2.18,3.01c-4.69-3.46-8.93-7.77-11.19-13.23c-3.35-7.54-3.14-16.45,0.22-23.94
		C680.25,544.24,682.38,541.87,684.91,540.2z"/>
	<path stroke="#000000" stroke-width="0.0938" d="M762.01,549.72c8.76,10.38,14.4,23.64,14.42,37.34
		c0.49,12.6-3.48,25.22-10.81,35.44c-10.33,14.62-27.71,23.99-45.61,24.47c-13.28,0.52-26.67-3.71-37.22-11.79
		c-12.32-9.05-20.45-23.22-22.84-38.25l0.85,0.01c9.97,11.03,24.36,17.84,39.18,18.79c3.2,0.23,6.44-0.11,9.63,0.41
		c13.89,5.09,30.71-3.18,35.5-17.13c2.63-3.05,5.37-6.03,7.53-9.45C760.5,577.96,763.47,563.56,762.01,549.72z"/>
	<linearGradient id="SVGID_6_" gradientUnits="userSpaceOnUse" x1="692.17" y1="974.625" x2="1278.4193" y2="974.625">
		<stop  offset="0" style="stop-color:#FFEA7F"/>
		<stop  offset="0.3811" style="stop-color:#FFFEFA"/>
		<stop  offset="0.4459" style="stop-color:#F3D66A"/>
		<stop  offset="0.4946" style="stop-color:#B56F00"/>
		<stop  offset="0.5426" style="stop-color:#BA7809"/>
		<stop  offset="0.6206" style="stop-color:#C88F21"/>
		<stop  offset="0.7181" style="stop-color:#DFB548"/>
		<stop  offset="0.7919" style="stop-color:#F3D66A"/>
		<stop  offset="1" style="stop-color:#713500"/>
	</linearGradient>
	<path fill="url(#SVGID_6_)" stroke="#F8F6EF" stroke-width="0.0938" d="M843.02,569.14c25.42,0.06,50.85,0.2,76.27-0.07
		c0.28,40.93,0.21,81.89,0.04,122.83l0.51-0.03c6.07,0.29,12.16,0.05,18.24,0.13c13.27-0.04,26.55,0.08,39.82-0.06
		c-0.08-40.94-0.07-81.88-0.01-122.82c25.46,0.13,50.92,0.17,76.37-0.02c0.12,41.24,0.05,82.49,0.04,123.73l0.06,0.63
		c6.2,0.46,12.43,0.78,18.62,1.5c23.08,2.26,46.14,6.26,68.07,13.96c19.36,6.78,37.7,16.59,53.81,29.31
		c15.87,12.77,27.28,30.52,33.69,49.77c6.95,21.68,9.13,45,5.87,67.56c-3.34,19.11-9.09,38.43-20.64,54.28
		c-11.66,14.5-27.41,24.97-42.98,34.83c15.03,3.56,29.73,8.68,43.58,15.56c15.09,7.39,28.87,17.78,39.05,31.24
		c7.31,9.49,12.95,20.23,16.94,31.52c8.53,23.61,9.09,49.17,7.08,73.94c-1.57,20.5-5.28,41.06-13.28,60.1
		c-6.35,15.19-15.6,29.22-27.42,40.71c-9.94,9.75-21.66,17.47-33.75,24.26c-20.61,11.47-43.09,19.34-66.11,24.26
		c-23.72,4.91-47.89,7.46-72.06,8.73c-3.64-0.06-7.26,0.29-10.85,0.82c0.06,40.06,0.03,80.13,0.01,120.19
		c-0.05,1.4,0.1,2.79,0.45,4.18c-19.41-0.1-38.83-0.02-58.24-0.04c-6.12,0-12.25-0.03-18.37,0.01c0.03-30.07,0.05-60.15-0.01-90.23
		c-0.04-10.69-0.1-21.39,0.04-32.07c-19.27,0.01-38.54-0.02-57.8,0.01l-0.65,0.34c0.13,40.65-0.03,81.31,0.08,121.96
		c-19.42-0.05-38.84-0.01-58.26-0.02c-6.1-0.01-12.21-0.01-18.31,0c0.07-29.99,0.01-59.99,0.03-89.98c-0.01-10.41,0-20.82,0-31.23
		v-1.09c-42.14,0.07-84.28-0.1-126.41,0.08l-0.48-0.03c-7.86-0.05-15.72-0.2-23.58,0.09c0.45-6.43,2.08-12.78,3.02-19.18
		c4.14-24.31,8.31-48.62,12.48-72.92c16.68-0.08,33.35,0.08,50.03-0.08c7.78-0.25,16.36-0.79,22.53-6.16
		c7.09-5.54,9.34-15.01,9.42-23.61c0.01-58.35,0.01-116.7,0.01-175.05c-0.11-50.36,0.21-100.72-0.17-151.08
		c-0.37-6.79-1.17-13.91-5.04-19.7c-3.31-4.89-7.15-9.75-12.59-12.36c-7.66-3.8-16.27-5.34-24.74-5.83
		c-12.17-0.92-24.37-0.25-36.55-0.51c-6.22-0.08-12.44-0.08-18.65,0.01c-0.07-26.49,0.05-52.98-0.06-79.47
		c50.27-0.11,100.53,0.02,150.8-0.07C842.97,651.03,842.88,610.08,843.02,569.14 M919.45,778.53c-0.01,49.3,0.03,98.6-0.02,147.91
		c6.15,0.08,12.31,0.24,18.47,0.38c32.45,0.28,65.59,0.9,96.97-8.64c17.45-5.33,35.44-12.79,47.32-27.26
		c12.34-14.92,15.18-35.74,11.6-54.31l-0.21-0.13c-3.17-15.25-12.95-28.64-25.59-37.52c-8.16-5.81-17.49-9.78-27.1-12.47
		c-14.31-4.22-29.01-7.15-43.88-8.46C971.2,776.02,945.25,776.61,919.45,778.53 M919.44,1002.59c0.15,54.81-0.24,109.67,0.19,164.45
		c6.16-0.19,12.32,0.06,18.48,0.05c21.67,0.1,43.35-0.1,64.97-1.54c22.68-1.68,45.27-5.52,66.99-12.32
		c16.17-5.06,31.9-13.08,43.63-25.53c14.99-16.18,18.45-40.19,14.17-61.19c-2.82-13.43-10.59-25.61-21.28-34.16
		c-14.52-11.83-32.78-17.54-50.65-22.08c-20.81-4.97-42.22-8-63.59-8.14c-17.9-0.9-35.88-0.8-53.78,0
		C932.23,1001.72,925.8,1002.42,919.44,1002.59z"/>
	<path stroke="#000000" stroke-width="0.0938" d="M446.44,583.5c8.21-5.54,17.84-8.36,27.56-9.77c13.66,3.98,22.34,19.5,19.15,33.29
		c-12.47-7.68-30.45-3.5-38.46,8.71c-2.47,3.16-3.23,7.19-5.26,10.59c-12.26-7.27-18.14-24.45-11.24-37.18
		C441.28,587.8,443.62,585.29,446.44,583.5z"/>
	<path stroke="#000000" stroke-width="0.0938" d="M522.62,594.83c0.23-0.12,0.69-0.34,0.93-0.45c7.23,9.41,12.58,20.57,13.43,32.55
		c1.62,15.99-3.84,32.54-14.66,44.43c-9.04,10.23-21.82,17-35.31,18.97c-12.76,1.79-26.13-0.64-37.29-7.11
		c-15.47-8.71-26.46-24.8-28.97-42.37l0.91,0.1c9.28,10.24,22.39,16.81,36.11,18.37c4.29,0.63,8.65,0.15,12.96,0.66
		c13.09,5.07,29.75-2.73,34.35-16.01c2.04-2.89,4.63-5.33,6.68-8.22C520.3,624.11,524.44,609.19,522.62,594.83z"/>
	<path fill="#002C0C" stroke="#002C0C" stroke-width="0.0938" d="M919.79,601.81c6.08-0.15,12.18-0.29,18.26-0.02
		c-0.01,30.07-0.07,60.14,0.03,90.21c-6.08-0.08-12.17,0.16-18.24-0.13c-0.49-10.61-0.09-21.27-0.22-31.89
		C919.72,640.59,919.4,621.19,919.79,601.81z"/>
	<path stroke="#000000" stroke-width="0.0938" d="M1054.81,602.08l1.1-0.39c-0.58,27.74-0.06,55.51-0.25,83.26
		c-0.05,2.38,0.06,4.77,0.2,7.16c1.67,0.13,3.36,0.28,5.06,0.45c-2.06,0.02-4.1,0.21-6.14,0.25c-0.33-26.25-0.03-52.52-0.14-78.78
		C1054.75,610.05,1054.4,606.04,1054.81,602.08z"/>
	<path fill="#002C0C" stroke="#002C0C" stroke-width="0.0938" d="M1055.91,601.69c5.67-0.03,11.35-0.06,17.03,0.08
		c-0.06,31.06-0.02,62.12,0.04,93.19c-6.19-0.72-12.42-1.04-18.62-1.5l-0.06-0.63l0.48-0.02c2.04-0.04,4.08-0.23,6.14-0.25
		c-1.7-0.17-3.39-0.32-5.06-0.45c-0.14-2.39-0.25-4.78-0.2-7.16C1055.85,657.2,1055.33,629.43,1055.91,601.69z"/>
	<linearGradient id="SVGID_7_" gradientUnits="userSpaceOnUse" x1="22.69" y1="736.7309" x2="312.7171" y2="736.7309">
		<stop  offset="0" style="stop-color:#BA8B01"/>
		<stop  offset="0.0438" style="stop-color:#CDAA37"/>
		<stop  offset="0.1121" style="stop-color:#E8D886"/>
		<stop  offset="0.1607" style="stop-color:#F8F4B8"/>
		<stop  offset="0.1847" style="stop-color:#FFFFCB"/>
		<stop  offset="0.2986" style="stop-color:#FFFFCB"/>
		<stop  offset="0.3078" style="stop-color:#FDF9C1"/>
		<stop  offset="0.3415" style="stop-color:#F5E6A0"/>
		<stop  offset="0.374" style="stop-color:#F0D989"/>
		<stop  offset="0.4043" style="stop-color:#EDD17B"/>
		<stop  offset="0.4303" style="stop-color:#ECCE76"/>
		<stop  offset="0.4892" style="stop-color:#A26F14"/>
		<stop  offset="0.6051" style="stop-color:#A26F14"/>
		<stop  offset="0.6074" style="stop-color:#A67418"/>
		<stop  offset="0.624" style="stop-color:#C19234"/>
		<stop  offset="0.6402" style="stop-color:#D4A848"/>
		<stop  offset="0.6558" style="stop-color:#E0B654"/>
		<stop  offset="0.6699" style="stop-color:#E4BA58"/>
		<stop  offset="0.6716" style="stop-color:#D9A94D"/>
		<stop  offset="0.6756" style="stop-color:#C38737"/>
		<stop  offset="0.6793" style="stop-color:#B36F27"/>
		<stop  offset="0.6828" style="stop-color:#A9601D"/>
		<stop  offset="0.6857" style="stop-color:#A65B1A"/>
		<stop  offset="0.6954" style="stop-color:#AA6222"/>
		<stop  offset="0.7104" style="stop-color:#B57637"/>
		<stop  offset="0.7287" style="stop-color:#C6965B"/>
		<stop  offset="0.7498" style="stop-color:#DEC38B"/>
		<stop  offset="0.7728" style="stop-color:#FDFCC9"/>
		<stop  offset="0.7741" style="stop-color:#FFFFCD"/>
		<stop  offset="0.7957" style="stop-color:#FFFFCD"/>
		<stop  offset="0.8468" style="stop-color:#E5BD5D"/>
		<stop  offset="0.8861" style="stop-color:#BB913B"/>
		<stop  offset="0.9116" style="stop-color:#BB913B"/>
		<stop  offset="0.9147" style="stop-color:#BE9337"/>
		<stop  offset="0.925" style="stop-color:#C39830"/>
		<stop  offset="0.9509" style="stop-color:#C5992E"/>
		<stop  offset="1" style="stop-color:#7F470A"/>
	</linearGradient>
	<path fill="url(#SVGID_7_)" stroke="#00CD0D" stroke-width="0.0938" d="M197.6,721.82c5.83-24.07,28.58-42.6,53.31-43.54
		c13.87-1.01,27.91,3.5,38.88,11.97c12.39,9.39,20.63,23.92,22.49,39.35c1.81,14.38-2.06,29.34-10.51,41.11
		c-2.05,2.92-4.6,5.45-6.75,8.31c-10.03,8.94-22.66,14.7-36,16.3c-9.91,0.05-20-1.03-29.05-5.35
		c-15.44-6.93-27.47-20.88-32.07-37.17c-21.31-0.44-42.65-0.06-63.98-0.18c-37.08,0.06-74.16-0.13-111.23,0.09
		c2.17-10.33,4.69-20.59,7.3-30.82c35.64,0.3,71.29,0.04,106.94,0.14C157.15,721.84,177.39,722.31,197.6,721.82 M228.05,724.97
		c-0.68,0.69-1.21,1.48-1.59,2.39c-4.59,12.78,1.33,28.49,13.48,34.69c9.94,6.02,23.59,4.75,32.51-2.59
		c5.44-4.19,8.95-10.47,10.45-17.1c2.12-10.84-2.28-22.6-11.25-29.11c-3-2.01-6.35-4.62-10.19-3.88c-0.36-0.3-1.08-0.91-1.44-1.21
		C247.35,705.17,232.02,712.21,228.05,724.97z"/>
	<linearGradient id="SVGID_8_" gradientUnits="userSpaceOnUse" x1="1581.2803" y1="765.5495" x2="1902.5" y2="765.5495">
		<stop  offset="0" style="stop-color:#BA8B01"/>
		<stop  offset="0.0438" style="stop-color:#CDAA37"/>
		<stop  offset="0.1121" style="stop-color:#E8D886"/>
		<stop  offset="0.1607" style="stop-color:#F8F4B8"/>
		<stop  offset="0.1847" style="stop-color:#FFFFCB"/>
		<stop  offset="0.2986" style="stop-color:#FFFFCB"/>
		<stop  offset="0.3078" style="stop-color:#FDF9C1"/>
		<stop  offset="0.3415" style="stop-color:#F5E6A0"/>
		<stop  offset="0.374" style="stop-color:#F0D989"/>
		<stop  offset="0.4043" style="stop-color:#EDD17B"/>
		<stop  offset="0.4303" style="stop-color:#ECCE76"/>
		<stop  offset="0.4892" style="stop-color:#A26F14"/>
		<stop  offset="0.6051" style="stop-color:#A26F14"/>
		<stop  offset="0.6074" style="stop-color:#A67418"/>
		<stop  offset="0.624" style="stop-color:#C19234"/>
		<stop  offset="0.6402" style="stop-color:#D4A848"/>
		<stop  offset="0.6558" style="stop-color:#E0B654"/>
		<stop  offset="0.6699" style="stop-color:#E4BA58"/>
		<stop  offset="0.6716" style="stop-color:#D9A94D"/>
		<stop  offset="0.6756" style="stop-color:#C38737"/>
		<stop  offset="0.6793" style="stop-color:#B36F27"/>
		<stop  offset="0.6828" style="stop-color:#A9601D"/>
		<stop  offset="0.6857" style="stop-color:#A65B1A"/>
		<stop  offset="0.6954" style="stop-color:#AA6222"/>
		<stop  offset="0.7104" style="stop-color:#B57637"/>
		<stop  offset="0.7287" style="stop-color:#C6965B"/>
		<stop  offset="0.7498" style="stop-color:#DEC38B"/>
		<stop  offset="0.7728" style="stop-color:#FDFCC9"/>
		<stop  offset="0.7741" style="stop-color:#FFFFCD"/>
		<stop  offset="0.7957" style="stop-color:#FFFFCD"/>
		<stop  offset="0.8468" style="stop-color:#E5BD5D"/>
		<stop  offset="0.8861" style="stop-color:#BB913B"/>
		<stop  offset="0.9116" style="stop-color:#BB913B"/>
		<stop  offset="0.9147" style="stop-color:#BE9337"/>
		<stop  offset="0.925" style="stop-color:#C39830"/>
		<stop  offset="0.9509" style="stop-color:#C5992E"/>
		<stop  offset="1" style="stop-color:#7F470A"/>
	</linearGradient>
	<path fill="url(#SVGID_8_)" stroke="#00CD0D" stroke-width="0.0938" d="M1605.27,718.22c15.5-11.57,36.96-14.53,55.02-7.57
		c16.37,6,29.75,19.83,34.97,36.49c11.88,0.43,23.8,0.02,35.71,0.19c55.04-0.14,110.1,0.22,165.14-0.19
		c2.31,10.11,4.45,20.25,6.39,30.44c-61.81,0.07-123.63,0-185.44,0.03c-2.34-0.07-4.71,0.27-6.97-0.31
		c-4.23-1.12-8.62-0.62-12.92-0.55c-1.8,9.33-5.94,18.18-11.94,25.54c-1.77,2.13-3.81,4.06-5.18,6.49c-5.21,3.15-9.8,7.3-15.45,9.73
		c-6.18,3.12-13.04,4.16-19.7,5.66c-8.32-0.11-16.76-0.55-24.62-3.51c-9.33-3.2-17.54-9.04-24.28-16.17
		c-9.09-10.63-14.89-24.39-14.7-38.49C1580.79,747.41,1590.2,729.03,1605.27,718.22 M1617.08,747.03c-1.42,1.8-3.12,3.72-2.89,6.18
		c-3.28,2.88-3.34,7.71-3.62,11.74c-0.4,10.2,5.3,19.84,13.62,25.47c7.84,4.3,17.36,5.83,25.84,2.44
		c9.15-3.49,16.66-11.82,18.18-21.61c2.77-10.3-1.81-21.86-10.01-28.48c-2.95-2.04-6.13-4.82-9.9-4.58c-1-1.16-2.62-1.26-3.96-1.58
		C1634.24,734.89,1623.44,739.01,1617.08,747.03z"/>
	<path stroke="#000000" stroke-width="0.0938" d="M261.46,709.37c3.84-0.74,7.19,1.87,10.19,3.88c8.97,6.51,13.37,18.27,11.25,29.11
		c-7.26-3.83-16.05-4.95-23.87-2.22c-9.59,3.23-17.66,11.71-19.09,21.91c-12.15-6.2-18.07-21.91-13.48-34.69
		c0.38-0.91,0.91-1.7,1.59-2.39c5.12-3.98,10.31-7.99,16.33-10.52C249.75,711.77,255.69,710.79,261.46,709.37z"/>
	<path stroke="#000000" stroke-width="0.0938" d="M312.28,729.6c6.77,6.77,10.9,15.93,13.13,25.17c3.54,14.95,0.7,31.2-7.49,44.18
		c-9.65,15.42-26.77,25.97-44.96,27.23c-11.62,0.94-23.51-1.7-33.62-7.5c-13.41-7.7-23.77-20.8-27.53-35.86
		c-6.92-0.52-13.87-0.11-20.81-0.22c-58.16,0.04-116.32-0.08-174.48,0.06c1.91-10.01,3.85-20.02,6.17-29.95
		c37.07-0.22,74.15-0.03,111.23-0.09c21.33,0.12,42.67-0.26,63.98,0.18c4.6,16.29,16.63,30.24,32.07,37.17
		c9.05,4.32,19.14,5.4,29.05,5.35c13.73,5.48,31.13-2.31,36-16.3c2.15-2.86,4.7-5.39,6.75-8.31
		C310.22,758.94,314.09,743.98,312.28,729.6z"/>
	<path stroke="#000000" stroke-width="0.0938" d="M1648.3,738.19c3.77-0.24,6.95,2.54,9.9,4.58c8.2,6.62,12.78,18.18,10.01,28.48
		c-14-8.62-34.38-2-40.81,13.12c-1.32,1.86-0.68,5.35-3.21,6.05c-8.32-5.63-14.02-15.27-13.62-25.47c0.28-4.03,0.34-8.86,3.62-11.74
		c3.72-2.6,7.22-5.55,11.24-7.72C1632.46,741.5,1640.33,739.29,1648.3,738.19z"/>
	<path fill="#001100" stroke="#001100" stroke-width="0.0938" d="M710.88,771.5c12.18,0.26,24.38-0.41,36.55,0.51
		c-1.93,1.2-4.26,0.89-6.4,0.94c-10.06-0.01-20.13-0.26-30.18,0.06L710.88,771.5z"/>
	<path fill="#002C0C" stroke="#002C0C" stroke-width="0.0938" d="M747.43,772.01c8.47,0.49,17.08,2.03,24.74,5.83
		c5.44,2.61,9.28,7.47,12.59,12.36c3.87,5.79,4.67,12.91,5.04,19.7c-10.14-4.94-21.7-5.57-32.79-5.99
		c-15.37-0.04-30.74,0.09-46.12-0.02c-0.31-10.29-0.29-20.6-0.04-30.88c10.05-0.32,20.12-0.07,30.18-0.06
		C743.17,772.9,745.5,773.21,747.43,772.01z"/>
	<path fill="#002C0C" stroke="#002C0C" stroke-width="0.0938" d="M919.45,778.53c25.8-1.92,51.75-2.51,77.56-0.5
		c14.87,1.31,29.57,4.24,43.88,8.46c9.61,2.69,18.94,6.66,27.1,12.47c12.64,8.88,22.42,22.27,25.59,37.52
		c-7.47-5.48-15.08-10.97-23.9-14.1c-22.88-8.46-47.28-12.27-71.6-13.02c-20.03-0.18-40.12-0.36-60.05,1.71
		c-0.11,38.01,0.21,76.02-0.16,114.02c-5.66,0.36-11.34,0.31-16.99,0.03c-0.46-28.04,0-56.11-0.21-84.17
		c0.19-20.31-0.24-40.64,0.22-60.95c1.63-0.2,3.29-0.37,4.95-0.56c-1.89-0.09-3.76-0.14-5.63-0.16c0.2,48.81,0.03,97.62,0.07,146.43
		c5.86,0.03,11.73-0.26,17.59,0.14l0.03,0.97c-6.16-0.14-12.32-0.3-18.47-0.38C919.48,877.13,919.44,827.83,919.45,778.53z"/>
	<path stroke="#000000" stroke-width="0.0938" d="M1697.17,776.75c4.3-0.07,8.69-0.57,12.92,0.55c2.26,0.58,4.63,0.24,6.97,0.31
		c61.81-0.03,123.63,0.04,185.44-0.03c1.94,9.97,3.72,19.98,5.3,30.01c-14.24,0.51-28.5,0.1-42.75,0.22
		c-51.24,0.13-102.49-0.24-153.72,0.18c-3.62,19.33-17.82,36.25-36.23,43.19c-17.39,6.93-38.09,4.65-53.58-5.85
		c-13.83-9.13-23.55-24.35-25.52-40.84c6.74,7.13,14.95,12.97,24.28,16.17c7.86,2.96,16.3,3.4,24.62,3.51
		c13.18,5.14,30.25-1.97,35.15-15.39c1.37-2.43,3.41-4.36,5.18-6.49C1691.23,794.93,1695.37,786.08,1697.17,776.75z"/>
	<path stroke="#000000" stroke-width="0.0938" d="M920.21,779.28c1.87,0.02,3.74,0.07,5.63,0.16c-1.66,0.19-3.32,0.36-4.95,0.56
		c-0.46,20.31-0.03,40.64-0.22,60.95c0.21,28.06-0.25,56.13,0.21,84.17c5.65,0.28,11.33,0.33,16.99-0.03v0.76
		c-5.86-0.4-11.73-0.11-17.59-0.14C920.24,876.9,920.41,828.09,920.21,779.28z"/>
	<path fill="#002C0C" stroke="#002C0C" stroke-width="0.0938" d="M1228.46,786.52c2.07,0.89,2.89,3.21,4.22,4.9
		c12.4,17.75,18.88,39.08,20.99,60.49c1.25,14.04,1.08,28.31-1.78,42.16c-3.55,16.54-8.87,33.08-18.64,47.07
		c-5.24,7.35-12.43,12.9-18.87,19.09c-13.85-6.88-28.55-12-43.58-15.56c15.57-9.86,31.32-20.33,42.98-34.83
		c11.55-15.85,17.3-35.17,20.64-54.28c3.26-22.56,1.08-45.88-5.87-67.56L1228.46,786.52z"/>
	<linearGradient id="SVGID_9_" gradientUnits="userSpaceOnUse" x1="3.83" y1="956.6633" x2="462.6008" y2="956.6633">
		<stop  offset="0" style="stop-color:#BA8B01"/>
		<stop  offset="0.0438" style="stop-color:#CDAA37"/>
		<stop  offset="0.1121" style="stop-color:#E8D886"/>
		<stop  offset="0.1607" style="stop-color:#F8F4B8"/>
		<stop  offset="0.1847" style="stop-color:#FFFFCB"/>
		<stop  offset="0.2986" style="stop-color:#FFFFCB"/>
		<stop  offset="0.3078" style="stop-color:#FDF9C1"/>
		<stop  offset="0.3415" style="stop-color:#F5E6A0"/>
		<stop  offset="0.374" style="stop-color:#F0D989"/>
		<stop  offset="0.4043" style="stop-color:#EDD17B"/>
		<stop  offset="0.4303" style="stop-color:#ECCE76"/>
		<stop  offset="0.4892" style="stop-color:#A26F14"/>
		<stop  offset="0.6051" style="stop-color:#A26F14"/>
		<stop  offset="0.6074" style="stop-color:#A67418"/>
		<stop  offset="0.624" style="stop-color:#C19234"/>
		<stop  offset="0.6402" style="stop-color:#D4A848"/>
		<stop  offset="0.6558" style="stop-color:#E0B654"/>
		<stop  offset="0.6699" style="stop-color:#E4BA58"/>
		<stop  offset="0.6716" style="stop-color:#D9A94D"/>
		<stop  offset="0.6756" style="stop-color:#C38737"/>
		<stop  offset="0.6793" style="stop-color:#B36F27"/>
		<stop  offset="0.6828" style="stop-color:#A9601D"/>
		<stop  offset="0.6857" style="stop-color:#A65B1A"/>
		<stop  offset="0.6954" style="stop-color:#AA6222"/>
		<stop  offset="0.7104" style="stop-color:#B57637"/>
		<stop  offset="0.7287" style="stop-color:#C6965B"/>
		<stop  offset="0.7498" style="stop-color:#DEC38B"/>
		<stop  offset="0.7728" style="stop-color:#FDFCC9"/>
		<stop  offset="0.7741" style="stop-color:#FFFFCD"/>
		<stop  offset="0.7957" style="stop-color:#FFFFCD"/>
		<stop  offset="0.8468" style="stop-color:#E5BD5D"/>
		<stop  offset="0.8861" style="stop-color:#BB913B"/>
		<stop  offset="0.9116" style="stop-color:#BB913B"/>
		<stop  offset="0.9147" style="stop-color:#BE9337"/>
		<stop  offset="0.925" style="stop-color:#C39830"/>
		<stop  offset="0.9509" style="stop-color:#C5992E"/>
		<stop  offset="1" style="stop-color:#7F470A"/>
	</linearGradient>
	<path fill="url(#SVGID_9_)" stroke="#00CD0D" stroke-width="0.0938" d="M359.09,862.04c9.57-11.59,23.78-19.29,38.77-20.75
		c16.92-1.86,34.64,4.02,46.78,16.03c9.63,9.25,16.05,21.88,17.53,35.18c1.77,14.17-1.97,28.91-10.19,40.57
		c-2.34,3.48-5.45,6.34-7.81,9.81c-1.49,0.9-2.99,1.79-4.36,2.87c-6.61,5.14-14.31,8.94-22.53,10.66c-2.49,0.49-4.97,1.07-7.39,1.83
		c-2.63-0.26-5.28-0.29-7.91-0.28c-14.46-0.4-28.41-6.64-38.87-16.53c-0.58,0.38-1.75,1.14-2.33,1.52
		c-70.91,40.62-141.55,81.71-212.38,122.47c-4.17,2.81-7.9,7.12-13.41,6.91c-42.81-0.02-85.63,0.17-128.43-0.11
		c-1-8.72-1.93-17.45-2.72-26.19c0-0.73-0.01-2.21-0.01-2.95c41.43,0.05,82.88,0.17,124.3-0.09c6.19-2.82,11.88-6.74,17.85-10.01
		c67.29-38.77,134.48-77.72,201.81-116.41c-1-5.14-2.25-10.27-2.15-15.54C345.05,886.95,350.04,872.81,359.09,862.04 M386.26,876.27
		c-3.71,3-7.47,6.83-8.4,11.66c-2.7,2.93-2.75,7.39-2.99,11.16c-0.39,9.95,5.14,19.33,13.13,24.99c7.41,4.36,16.7,6.28,24.95,3.19
		c9.99-3.04,17.78-11.84,19.81-22.05c2.17-10.74-2.15-22.42-10.96-28.97c-2.85-1.94-5.98-4.49-9.63-4.09
		c-0.78-0.85-1.74-1.35-2.89-1.51C401.26,869.15,392.75,871.38,386.26,876.27z"/>
	<path stroke="#000000" stroke-width="0.0938" d="M392.24,878.21c6.24-3.15,13.08-4.86,19.93-6.05c3.65-0.4,6.78,2.15,9.63,4.09
		c8.81,6.55,13.13,18.23,10.96,28.97c-6.59-3.7-14.5-4.58-21.83-2.94c-10.4,2.63-18.93,11.39-21.2,21.89
		c-0.43-0.02-1.3-0.07-1.73-0.09c-7.99-5.66-13.52-15.04-13.13-24.99c0.24-3.77,0.29-8.23,2.99-11.16
		C382.41,884.36,386.97,880.69,392.24,878.21z"/>
	<linearGradient id="SVGID_10_" gradientUnits="userSpaceOnUse" x1="1370.9962" y1="1035.2151" x2="1901.48" y2="1035.2151">
		<stop  offset="0" style="stop-color:#BA8B01"/>
		<stop  offset="0.0438" style="stop-color:#CDAA37"/>
		<stop  offset="0.1121" style="stop-color:#E8D886"/>
		<stop  offset="0.1607" style="stop-color:#F8F4B8"/>
		<stop  offset="0.1847" style="stop-color:#FFFFCB"/>
		<stop  offset="0.2986" style="stop-color:#FFFFCB"/>
		<stop  offset="0.3078" style="stop-color:#FDF9C1"/>
		<stop  offset="0.3415" style="stop-color:#F5E6A0"/>
		<stop  offset="0.374" style="stop-color:#F0D989"/>
		<stop  offset="0.4043" style="stop-color:#EDD17B"/>
		<stop  offset="0.4303" style="stop-color:#ECCE76"/>
		<stop  offset="0.4892" style="stop-color:#A26F14"/>
		<stop  offset="0.6051" style="stop-color:#A26F14"/>
		<stop  offset="0.6074" style="stop-color:#A67418"/>
		<stop  offset="0.624" style="stop-color:#C19234"/>
		<stop  offset="0.6402" style="stop-color:#D4A848"/>
		<stop  offset="0.6558" style="stop-color:#E0B654"/>
		<stop  offset="0.6699" style="stop-color:#E4BA58"/>
		<stop  offset="0.6716" style="stop-color:#D9A94D"/>
		<stop  offset="0.6756" style="stop-color:#C38737"/>
		<stop  offset="0.6793" style="stop-color:#B36F27"/>
		<stop  offset="0.6828" style="stop-color:#A9601D"/>
		<stop  offset="0.6857" style="stop-color:#A65B1A"/>
		<stop  offset="0.6954" style="stop-color:#AA6222"/>
		<stop  offset="0.7104" style="stop-color:#B57637"/>
		<stop  offset="0.7287" style="stop-color:#C6965B"/>
		<stop  offset="0.7498" style="stop-color:#DEC38B"/>
		<stop  offset="0.7728" style="stop-color:#FDFCC9"/>
		<stop  offset="0.7741" style="stop-color:#FFFFCD"/>
		<stop  offset="0.7957" style="stop-color:#FFFFCD"/>
		<stop  offset="0.8468" style="stop-color:#E5BD5D"/>
		<stop  offset="0.8861" style="stop-color:#BB913B"/>
		<stop  offset="0.9116" style="stop-color:#BB913B"/>
		<stop  offset="0.9147" style="stop-color:#BE9337"/>
		<stop  offset="0.925" style="stop-color:#C39830"/>
		<stop  offset="0.9509" style="stop-color:#C5992E"/>
		<stop  offset="1" style="stop-color:#7F470A"/>
	</linearGradient>
	<path fill="url(#SVGID_10_)" stroke="#00CD0D" stroke-width="0.0938" d="M1400.44,899.52c17.33-10.22,40.01-10.31,57.5-0.4
		c16.63,9.19,28.39,26.81,29.79,45.85c0.73,6.33,0.15,12.76-1.31,18.96c4.51,2.89,9.27,5.38,13.85,8.19
		c70.77,40.72,141.44,81.64,212.17,122.45c30.68,17.58,61.17,35.55,91.96,52.91c32.34,0.41,64.72-0.02,97.08,0.22
		c-2.1,10.36-4.21,20.72-6.8,30.96c-22.53-0.47-45.1-0.06-67.64-0.21c-3.53-0.2-7.3,0.73-10.55-1c-8.21-2.11-17.56,1.75-25.27-2.66
		c-5.6-4.71-12.27-7.81-18.49-11.58c-100.14-57.74-200.16-115.69-300.36-173.31c-0.78,1.02-1.51,2.06-2.23,3.12
		c-5.8,4.4-11.66,8.91-18.54,11.5c-5.05,2.34-10.65,2.79-15.83,4.68c-5.91-0.74-11.95-0.08-17.78-1.52
		c-12.34-2.38-23.57-9.08-32.1-18.22c-12.24-13.8-17.59-33.4-13.58-51.46C1375.71,921.99,1386.13,907.55,1400.44,899.52
		 M1403.06,938.99c-2.45,3.04-2.54,7.32-2.78,11.06c-0.24,10.26,5.6,19.89,14.06,25.44c7.46,3.96,16.5,5.33,24.58,2.44
		c9.69-3.15,17.39-11.8,19.22-21.85c2.68-11.79-3.14-24.7-13.5-30.8c-2.02-1.07-4.16-2.67-6.54-2.29c-0.28-0.21-0.83-0.63-1.11-0.84
		C1423.76,918.11,1407.4,925.6,1403.06,938.99z"/>
	<linearGradient id="SVGID_11_" gradientUnits="userSpaceOnUse" x1="1741.7656" y1="963.9003" x2="1918.97" y2="963.9003">
		<stop  offset="0" style="stop-color:#BA8B01"/>
		<stop  offset="0.0438" style="stop-color:#CDAA37"/>
		<stop  offset="0.1121" style="stop-color:#E8D886"/>
		<stop  offset="0.1607" style="stop-color:#F8F4B8"/>
		<stop  offset="0.1847" style="stop-color:#FFFFCB"/>
		<stop  offset="0.2986" style="stop-color:#FFFFCB"/>
		<stop  offset="0.3078" style="stop-color:#FDF9C1"/>
		<stop  offset="0.3415" style="stop-color:#F5E6A0"/>
		<stop  offset="0.374" style="stop-color:#F0D989"/>
		<stop  offset="0.4043" style="stop-color:#EDD17B"/>
		<stop  offset="0.4303" style="stop-color:#ECCE76"/>
		<stop  offset="0.4892" style="stop-color:#A26F14"/>
		<stop  offset="0.6051" style="stop-color:#A26F14"/>
		<stop  offset="0.6074" style="stop-color:#A67418"/>
		<stop  offset="0.624" style="stop-color:#C19234"/>
		<stop  offset="0.6402" style="stop-color:#D4A848"/>
		<stop  offset="0.6558" style="stop-color:#E0B654"/>
		<stop  offset="0.6699" style="stop-color:#E4BA58"/>
		<stop  offset="0.6716" style="stop-color:#D9A94D"/>
		<stop  offset="0.6756" style="stop-color:#C38737"/>
		<stop  offset="0.6793" style="stop-color:#B36F27"/>
		<stop  offset="0.6828" style="stop-color:#A9601D"/>
		<stop  offset="0.6857" style="stop-color:#A65B1A"/>
		<stop  offset="0.6954" style="stop-color:#AA6222"/>
		<stop  offset="0.7104" style="stop-color:#B57637"/>
		<stop  offset="0.7287" style="stop-color:#C6965B"/>
		<stop  offset="0.7498" style="stop-color:#DEC38B"/>
		<stop  offset="0.7728" style="stop-color:#FDFCC9"/>
		<stop  offset="0.7741" style="stop-color:#FFFFCD"/>
		<stop  offset="0.7957" style="stop-color:#FFFFCD"/>
		<stop  offset="0.8468" style="stop-color:#E5BD5D"/>
		<stop  offset="0.8861" style="stop-color:#BB913B"/>
		<stop  offset="0.9116" style="stop-color:#BB913B"/>
		<stop  offset="0.9147" style="stop-color:#BE9337"/>
		<stop  offset="0.925" style="stop-color:#C39830"/>
		<stop  offset="0.9509" style="stop-color:#C5992E"/>
		<stop  offset="1" style="stop-color:#7F470A"/>
	</linearGradient>
	<path fill="url(#SVGID_11_)" stroke="#00CD0D" stroke-width="0.0938" d="M1784.06,894.09c18.5-5.55,39.69-1,54.25,11.7
		c12.07,10.21,19.64,25.49,20.39,41.29c0.57,6.77-0.53,13.55-2.29,20.07c5.18,3.13,10.5,6.04,15.7,9.16
		c15.66,8.83,31.05,18.19,46.86,26.76c-0.37,11-1.11,21.99-1.97,32.97c-25.04-14.47-50.1-28.9-75.13-43.39l-0.78,0.27
		c-6.15,4.4-12.12,9.27-19.34,11.84c-4.8,2.3-10.27,2.44-15.12,4.5c-3.87-0.85-7.85-0.18-11.74-0.68
		c-14.58-1.32-28.43-8.37-38.23-19.21c-13.52-15.1-18.54-37.44-12.13-56.75C1750.17,914.26,1765.55,899.26,1784.06,894.09
		 M1773.99,938.91c-0.25,0.3-0.73,0.88-0.97,1.17c-5.32,12.75,0.53,28.61,12.45,35.42l-0.06,0.13c7.49,3.94,16.52,5.11,24.58,2.23
		c9.55-3.25,17.01-11.86,18.96-21.74c2.49-11.54-2.84-24.19-12.86-30.42c-2.15-1.22-4.36-2.89-6.92-2.76
		c-0.51-0.26-1.51-0.78-2.02-1.04C1794.12,918.39,1778.07,925.66,1773.99,938.91z"/>
	<path stroke="#000000" stroke-width="0.0938" d="M462.17,892.5c2.41,1.74,3.89,4.38,5.52,6.81c8.11,12.71,11.09,28.61,7.85,43.36
		c-3.07,14.98-12.35,28.55-25.17,36.87c-10.36,6.82-22.92,10.27-35.31,9.53c-13.54-0.58-26.6-6.37-36.58-15.45
		c-1.02-1.34-2.48-0.19-3.55,0.35c-71.18,41.18-142.42,82.24-213.62,123.37c-3.38,2.75-6.78,6.02-11.42,6.23
		c-46.35,0.24-92.72-0.16-139.07,0.2c-1.52-9.84-2.76-19.72-4.01-29.6c44.07,0.26,88.14,0.01,132.21,0.11
		c1.53-0.11,3.21,0.16,4.62-0.58c72.82-41.93,145.47-84.18,218.38-125.94c-0.36-1.62-0.72-3.25-1.24-4.81
		c0.58-0.38,1.75-1.14,2.33-1.52c10.46,9.89,24.41,16.13,38.87,16.53c2.63-0.01,5.28,0.02,7.91,0.28
		c7.49,3.06,16.18,1.47,23.09-2.37c4.88-3.03,9.63-7.27,11.19-12.99c2.36-3.47,5.47-6.33,7.81-9.81
		C460.2,921.41,463.94,906.67,462.17,892.5z"/>
	<path stroke="#000000" stroke-width="0.0938" d="M1403.06,938.99c9.76-8.69,21.99-14.59,35.04-16c2.38-0.38,4.52,1.22,6.54,2.29
		c10.36,6.1,16.18,19.01,13.5,30.8c-12.31-7.48-29.71-3.71-37.96,8.04c-2.85,3.31-3.52,7.77-5.84,11.37
		c-8.46-5.55-14.3-15.18-14.06-25.44C1400.52,946.31,1400.61,942.03,1403.06,938.99z"/>
	<path stroke="#000000" stroke-width="0.0938" d="M1773.99,938.91c9.73-8.83,22.14-14.42,35.18-15.97c2.56-0.13,4.77,1.54,6.92,2.76
		c10.02,6.23,15.35,18.88,12.86,30.42c-12.05-7.36-29-3.91-37.47,7.31c-2.95,3.5-4.33,7.9-6.01,12.07
		c-11.92-6.81-17.77-22.67-12.45-35.42C1773.26,939.79,1773.74,939.21,1773.99,938.91z"/>
	<linearGradient id="SVGID_12_" gradientUnits="userSpaceOnUse" x1="43.94" y1="1100.5365" x2="654.7151" y2="1100.5365">
		<stop  offset="0" style="stop-color:#BA8B01"/>
		<stop  offset="0.0438" style="stop-color:#CDAA37"/>
		<stop  offset="0.1121" style="stop-color:#E8D886"/>
		<stop  offset="0.1607" style="stop-color:#F8F4B8"/>
		<stop  offset="0.1847" style="stop-color:#FFFFCB"/>
		<stop  offset="0.2986" style="stop-color:#FFFFCB"/>
		<stop  offset="0.3078" style="stop-color:#FDF9C1"/>
		<stop  offset="0.3415" style="stop-color:#F5E6A0"/>
		<stop  offset="0.374" style="stop-color:#F0D989"/>
		<stop  offset="0.4043" style="stop-color:#EDD17B"/>
		<stop  offset="0.4303" style="stop-color:#ECCE76"/>
		<stop  offset="0.4892" style="stop-color:#A26F14"/>
		<stop  offset="0.6051" style="stop-color:#A26F14"/>
		<stop  offset="0.6074" style="stop-color:#A67418"/>
		<stop  offset="0.624" style="stop-color:#C19234"/>
		<stop  offset="0.6402" style="stop-color:#D4A848"/>
		<stop  offset="0.6558" style="stop-color:#E0B654"/>
		<stop  offset="0.6699" style="stop-color:#E4BA58"/>
		<stop  offset="0.6716" style="stop-color:#D9A94D"/>
		<stop  offset="0.6756" style="stop-color:#C38737"/>
		<stop  offset="0.6793" style="stop-color:#B36F27"/>
		<stop  offset="0.6828" style="stop-color:#A9601D"/>
		<stop  offset="0.6857" style="stop-color:#A65B1A"/>
		<stop  offset="0.6954" style="stop-color:#AA6222"/>
		<stop  offset="0.7104" style="stop-color:#B57637"/>
		<stop  offset="0.7287" style="stop-color:#C6965B"/>
		<stop  offset="0.7498" style="stop-color:#DEC38B"/>
		<stop  offset="0.7728" style="stop-color:#FDFCC9"/>
		<stop  offset="0.7741" style="stop-color:#FFFFCD"/>
		<stop  offset="0.7957" style="stop-color:#FFFFCD"/>
		<stop  offset="0.8468" style="stop-color:#E5BD5D"/>
		<stop  offset="0.8861" style="stop-color:#BB913B"/>
		<stop  offset="0.9116" style="stop-color:#BB913B"/>
		<stop  offset="0.9147" style="stop-color:#BE9337"/>
		<stop  offset="0.925" style="stop-color:#C39830"/>
		<stop  offset="0.9509" style="stop-color:#C5992E"/>
		<stop  offset="1" style="stop-color:#7F470A"/>
	</linearGradient>
	<path fill="url(#SVGID_12_)" stroke="#00CD0D" stroke-width="0.0938" d="M568.27,931.24c18.69-10.32,43-9.19,60.58,2.95
		c13.94,9.26,23.4,24.8,25.42,41.4c1.79,14.14-1.87,28.86-10.06,40.52c-2.13,3.17-4.84,5.9-7.18,8.91
		c-10.02,8.99-22.71,14.78-36.1,16.31c-4.03-0.32-8.09-0.03-12.1-0.54c-10.94-1.39-21.44-5.92-29.93-12.95
		c-1.68,0.94-3.36,1.86-5,2.86c-137.23,79.15-274.38,158.43-411.6,237.59c-4.88,2.45-9.2,6.06-14.36,7.89
		c-12.28,0.71-24.63,0.01-36.94,0.28c-12.39,0.22-24.84-0.54-37.19,0.39c-3.51-9.84-6.76-19.76-9.87-29.72
		c24.35,0.54,48.73,0.01,73.09,0.26c3.89,0.31,6.91-2.5,10.14-4.17c138.05-79.78,276.19-159.41,414.22-239.21
		c-3.49-10.57-5.02-22-2.55-32.98C542.1,954.26,553.25,939.32,568.27,931.24 M578.47,959.45c-3.66,3.02-7.49,6.72-8.39,11.56
		c-1.87,1.73-2.28,4.39-2.77,6.78c-2.16,11.87,3.94,24.57,14.49,30.38c10.46,6.11,24.83,4.58,33.78-3.61
		c4.86-4.11,7.82-10.05,9.32-16.15c2.18-11.11-2.53-23.18-11.9-29.6c-2.85-1.78-5.98-4.19-9.55-3.39c-0.35-0.31-1.05-0.94-1.4-1.25
		C593.92,952.54,585,954.18,578.47,959.45z"/>
	<path stroke="#000000" stroke-width="0.0938" d="M1487.73,944.97c0.16-0.47,0.47-1.41,0.62-1.87c6.4,8.52,11.44,18.17,13.24,28.77
		c-0.33,0.06-0.99,0.19-1.32,0.25c-4.58-2.81-9.34-5.3-13.85-8.19C1487.88,957.73,1488.46,951.3,1487.73,944.97z"/>
	<path stroke="#000000" stroke-width="0.0938" d="M1858.86,943.54c8.16,8.85,12.61,20.63,14.02,32.48l-0.77,0.29
		c-5.2-3.12-10.52-6.03-15.7-9.16c1.76-6.52,2.86-13.3,2.29-20.07C1858.74,946.2,1858.82,944.43,1858.86,943.54z"/>
	<path stroke="#000000" stroke-width="0.0938" d="M603.45,955.42c3.57-0.8,6.7,1.61,9.55,3.39c9.37,6.42,14.08,18.49,11.9,29.6
		c-5.46-2.84-11.69-4.28-17.84-3.56c-12.29,1.13-23.21,11.13-25.26,23.32c-10.55-5.81-16.65-18.51-14.49-30.38
		c0.49-2.39,0.9-5.05,2.77-6.78c5.06-4.05,10.34-7.94,16.31-10.56C591.76,957.84,597.69,956.82,603.45,955.42z"/>
	<path stroke="#000000" stroke-width="0.0938" d="M654.27,975.59c10.86,11.42,15.74,27.93,14.43,43.52
		c-1.13,12.21-6.17,24.08-14.31,33.28c-10.57,12.15-26.31,19.73-42.45,19.96c-14.04,0.51-28.04-4.45-38.9-13.3
		c-1.3,0.69-2.59,1.4-3.86,2.14c-139.45,80.55-278.93,161.04-418.39,241.57c-3.18,1.78-6.21,4.08-9.83,4.89
		c-3.62,0.48-7.27,0.15-10.9,0.26c-21.61-0.04-43.21,0-64.81-0.01c-3.72-9.63-7.34-19.29-10.71-29.03
		c26.61-0.74,53.31,0.17,79.92-0.46c139.79-80.85,279.7-161.51,419.54-242.27c2.93-0.99,0.63-3.71-0.1-5.44c1.64-1,3.32-1.92,5-2.86
		c8.49,7.03,18.99,11.56,29.93,12.95c4.01,0.51,8.07,0.22,12.1,0.54c13.72,5.49,31.29-2.26,36.1-16.31
		c2.34-3.01,5.05-5.74,7.18-8.91C652.4,1004.45,656.06,989.73,654.27,975.59z"/>
	<path stroke="#000000" stroke-width="0.0938" d="M1385.89,989.46c8.53,9.14,19.76,15.84,32.1,18.22
		c5.83,1.44,11.87,0.78,17.78,1.52c13.24,4.68,29.72-2.82,34.37-16.18c0.72-1.06,1.45-2.1,2.23-3.12
		c100.2,57.62,200.22,115.57,300.36,173.31c6.22,3.77,12.89,6.87,18.49,11.58c7.71,4.41,17.06,0.55,25.27,2.66
		c3.25,1.73,7.02,0.8,10.55,1c22.54,0.15,45.11-0.26,67.64,0.21c-2.13,9.88-4.71,19.65-7.29,29.43
		c-22.12-0.09-44.24-0.05-66.35-0.05c-5.31-0.05-11.17,0.92-15.84-2.21c-2.53-1.92-4.94-4.02-7.82-5.39
		c-103.48-59.82-207.06-119.47-310.51-179.35c-6.51,6.78-14.39,12.35-23.3,15.46c-15.2,5.46-32.63,4.43-46.9-3.2
		C1400.2,1024.82,1387.89,1008.01,1385.89,989.46z"/>
	<path stroke="#000000" stroke-width="0.0938" d="M1785.01,1031.99c-15.28-8.81-26.49-25.01-28.35-42.62
		c9.8,10.84,23.65,17.89,38.23,19.21c3.89,0.5,7.87-0.17,11.74,0.68c13.36,4.61,29.65-2.99,34.46-16.34l0.78-0.27
		c25.03,14.49,50.09,28.92,75.13,43.39c-0.61,7.3-1.23,14.6-2,21.88c-19.94-11.46-39.7-23.3-59.87-34.33
		c-6.34,6-13.93,10.72-22.25,13.4C1817.19,1042.34,1799.25,1040.49,1785.01,1031.99z"/>
	<path fill="#002C0C" stroke="#002C0C" stroke-width="0.0938" d="M919.44,1002.59c6.36-0.17,12.79-0.87,19.13-0.46
		c2.99,1.23,6.26,0.83,9.43,0.84c13-0.19,26-0.04,39,0c1.81,0.08,3.61-0.28,5.35-0.84c21.37,0.14,42.78,3.17,63.59,8.14
		c17.87,4.54,36.13,10.25,50.65,22.08c10.69,8.55,18.46,20.73,21.28,34.16c-6.49-4.38-12.64-9.38-19.89-12.52
		c-18.88-8.58-39.29-13.26-59.71-16.42c-14-2.06-28.13-3.31-42.28-3.32c-15.33-0.54-30.68-0.38-46.01,0.06
		c-7.31-0.04-14.61,0.19-21.89,0.72c-0.06,44.02-0.13,88.04,0.02,132.06c-6.16,0.01-12.32-0.24-18.48-0.05
		C919.2,1112.26,919.59,1057.4,919.44,1002.59 M920.27,1003.29c0,53.86,0.04,107.71-0.02,161.57c0.15,0.32,0.44,0.98,0.58,1.31
		c-0.32-29.07-0.03-58.14-0.16-87.21c0.19-25.05-0.18-50.1,0.16-75.15c3.35-0.28,6.73,0.18,10.06-0.38
		C927.35,1003.17,923.81,1003.35,920.27,1003.29z"/>
	<path fill="#001200" stroke="#001200" stroke-width="0.0938" d="M938.57,1002.13c17.9-0.8,35.88-0.9,53.78,0
		c-1.74,0.56-3.54,0.92-5.35,0.84c-13-0.04-26-0.19-39,0C944.83,1002.96,941.56,1003.36,938.57,1002.13z"/>
	<path stroke="#000000" stroke-width="0.0938" d="M920.27,1003.29c3.54,0.06,7.08-0.12,10.62,0.14c-3.33,0.56-6.71,0.1-10.06,0.38
		c-0.34,25.05,0.03,50.1-0.16,75.15c0.13,29.07-0.16,58.14,0.16,87.21c-0.14-0.33-0.43-0.99-0.58-1.31
		C920.31,1111,920.27,1057.15,920.27,1003.29z"/>
	<path fill="#002C0C" stroke="#002C0C" stroke-width="0.0938" d="M1270.37,1022.99l1.28,0.13c12.26,16.3,20.12,35.7,23.3,55.81
		c3.28,20.19,2.1,40.8,0.04,61.06c-2.77,24-9.08,48.14-22.27,68.63c-7.71,12.57-18.21,23.29-29.89,32.23
		c-17.47,12.8-37.04,22.59-57.51,29.59c-36.09,12.4-74.48,15.49-112.31,17.74c-0.23,41.5,0.12,83.02-0.23,124.5
		c-25.5-0.03-50.99-0.06-76.49,0.01c0.06-10.85,0.17-21.71-0.09-32.55c19.41,0.02,38.83-0.06,58.24,0.04l0.56-0.46
		c0.04-37.82,0-75.79,0.01-113.67c0.13-2.98-0.62-6.28,1.08-8.92c2.89-1.77,6.5-1.24,9.7-0.75c-0.28-0.12-0.84-0.35-1.12-0.47
		l0.16-0.92c24.17-1.27,48.34-3.82,72.06-8.73c23.02-4.92,45.5-12.79,66.11-24.26c12.09-6.79,23.81-14.51,33.75-24.26
		c11.82-11.49,21.07-25.52,27.42-40.71c8-19.04,11.71-39.6,13.28-60.1C1279.46,1072.16,1278.9,1046.6,1270.37,1022.99z"/>
	<linearGradient id="SVGID_13_" gradientUnits="userSpaceOnUse" x1="126.88" y1="1332.8912" x2="566.9101" y2="1332.8912">
		<stop  offset="0" style="stop-color:#BA8B01"/>
		<stop  offset="0.0438" style="stop-color:#CDAA37"/>
		<stop  offset="0.1121" style="stop-color:#E8D886"/>
		<stop  offset="0.1607" style="stop-color:#F8F4B8"/>
		<stop  offset="0.1847" style="stop-color:#FFFFCB"/>
		<stop  offset="0.2986" style="stop-color:#FFFFCB"/>
		<stop  offset="0.3078" style="stop-color:#FDF9C1"/>
		<stop  offset="0.3415" style="stop-color:#F5E6A0"/>
		<stop  offset="0.374" style="stop-color:#F0D989"/>
		<stop  offset="0.4043" style="stop-color:#EDD17B"/>
		<stop  offset="0.4303" style="stop-color:#ECCE76"/>
		<stop  offset="0.4892" style="stop-color:#A26F14"/>
		<stop  offset="0.6051" style="stop-color:#A26F14"/>
		<stop  offset="0.6074" style="stop-color:#A67418"/>
		<stop  offset="0.624" style="stop-color:#C19234"/>
		<stop  offset="0.6402" style="stop-color:#D4A848"/>
		<stop  offset="0.6558" style="stop-color:#E0B654"/>
		<stop  offset="0.6699" style="stop-color:#E4BA58"/>
		<stop  offset="0.6716" style="stop-color:#D9A94D"/>
		<stop  offset="0.6756" style="stop-color:#C38737"/>
		<stop  offset="0.6793" style="stop-color:#B36F27"/>
		<stop  offset="0.6828" style="stop-color:#A9601D"/>
		<stop  offset="0.6857" style="stop-color:#A65B1A"/>
		<stop  offset="0.6954" style="stop-color:#AA6222"/>
		<stop  offset="0.7104" style="stop-color:#B57637"/>
		<stop  offset="0.7287" style="stop-color:#C6965B"/>
		<stop  offset="0.7498" style="stop-color:#DEC38B"/>
		<stop  offset="0.7728" style="stop-color:#FDFCC9"/>
		<stop  offset="0.7741" style="stop-color:#FFFFCD"/>
		<stop  offset="0.7957" style="stop-color:#FFFFCD"/>
		<stop  offset="0.8468" style="stop-color:#E5BD5D"/>
		<stop  offset="0.8861" style="stop-color:#BB913B"/>
		<stop  offset="0.9116" style="stop-color:#BB913B"/>
		<stop  offset="0.9147" style="stop-color:#BE9337"/>
		<stop  offset="0.925" style="stop-color:#C39830"/>
		<stop  offset="0.9509" style="stop-color:#C5992E"/>
		<stop  offset="1" style="stop-color:#7F470A"/>
	</linearGradient>
	<path fill="url(#SVGID_13_)" stroke="#00CD0D" stroke-width="0.0938" d="M493.2,1203.35c17.4-4.85,36.96-0.89,51.15,10.27
		c13.05,10.16,21.65,25.97,22.38,42.58c0.98,11.61-2.09,23.44-7.98,33.45c-2.62,4.89-6.67,8.72-9.92,13.16
		c-5.01,3.36-9.59,7.44-15.19,9.84c-6.61,2.96-13.69,5.05-20.9,5.75c-22.02,1.38-44.58-10.11-55.13-29.71
		c-0.79-1.45-1.7-2.82-2.54-4.2c-104,59.91-207.9,120.05-311.87,179.98c-5.56-9.1-11.04-18.24-16.32-27.49
		c2.16-0.18,4.48,0.18,6.54-0.64c105.46-60.92,210.9-121.88,316.45-182.64c0.98-3.93,1.53-7.95,2.85-11.77
		C458.49,1223.31,474.31,1208.19,493.2,1203.35 M486.5,1240.53c-1.71,2.31-4.07,4.59-4.22,7.64c-2.14,2.03-2.36,5.18-2.86,7.92
		c-1.56,11.39,4.31,23.93,14.79,28.99l-0.12,0.5c7.95,3.77,17.54,4.85,25.7,1.11c8.92-3.57,15.51-11.96,17.35-21.32
		c2.85-13.47-5.26-28-18.11-32.8C507.86,1228.23,494.28,1231.31,486.5,1240.53z"/>
	<path stroke="#000000" stroke-width="0.0938" d="M482.28,1248.17c10.26-8.77,23.09-15.09,36.75-15.6
		c12.85,4.8,20.96,19.33,18.11,32.8c-5.35-2.35-11.16-4.12-17.06-3.49c-12.43,0.9-24.01,10.7-25.87,23.2
		c-10.48-5.06-16.35-17.6-14.79-28.99C479.92,1253.35,480.14,1250.2,482.28,1248.17z"/>
	<path stroke="#000000" stroke-width="0.0938" d="M567.01,1252.78c14.39,16.59,18.27,41.43,9.29,61.53
		c-7.31,17.07-23.25,30.1-41.42,33.9c-17.79,3.86-37.25-1.06-50.87-13.2c-6.33-5.29-10.87-12.27-14.82-19.42
		c-102.46,59.26-205.01,118.38-307.5,177.6c-5.45-8.17-10.8-16.41-15.97-24.75c101.53-58.32,202.8-117.1,304.28-175.53
		c2.49-1.48,4.96-3.02,7.61-4.22c10.55,19.6,33.11,31.09,55.13,29.71c13.5,5.38,31.22-1.64,36.09-15.59
		c3.25-4.44,7.3-8.27,9.92-13.16c5.89-10.01,8.96-21.84,7.98-33.45C566.8,1255.34,566.94,1253.64,567.01,1252.78z"/>
	<path fill="#487760" stroke="#487760" stroke-width="0.0938" d="M1053.98,1255.81c3.59-0.53,7.21-0.88,10.85-0.82l-0.16,0.92
		c-3.19-0.07-6.37,0.12-9.54,0.3c-0.33,41.17-0.07,82.35-0.13,123.51l-0.56,0.46c-0.35-1.39-0.5-2.78-0.45-4.18
		C1054.01,1335.94,1054.04,1295.87,1053.98,1255.81z"/>
	<path fill="#002C0C" stroke="#002C0C" stroke-width="0.0938" d="M716.06,1257.89l0.48,0.03c0.99,0.81,2.14,1.15,3.47,1.02
		c40.98,0.03,81.96-0.02,122.94-0.01c0,10.41-0.01,20.82,0,31.23c-27.62,0.3-55.25,0.06-82.88,0.13
		c-16.38-0.12-32.77,0.22-49.14-0.15C712.23,1279.33,714.91,1268.71,716.06,1257.89z"/>
	<path fill="#001100" stroke="#001100" stroke-width="0.0938" d="M716.54,1257.92c42.13-0.18,84.27-0.01,126.41-0.08v1.09
		c-40.98-0.01-81.96,0.04-122.94,0.01C718.68,1259.07,717.53,1258.73,716.54,1257.92z"/>
	<path fill="#002C0C" stroke="#002C0C" stroke-width="0.0938" d="M919.41,1258.2l0.65-0.34c0.7,40.69-0.16,81.42,0.42,122.12
		c0.53-27.63,0.04-55.29,0.26-82.93c0.12-12.74-0.31-25.5,0.17-38.22c18.41-0.28,36.85-0.27,55.26,0
		c0.36,10.36,0.22,20.74,0.05,31.11c-12.66,0.76-25.41,0.25-38.1,0.25c-0.2,31.25-0.04,62.5-0.07,93.76
		c-0.25,9.58,0.45,19.22-0.35,28.76c-25.46-0.13-50.91-0.07-76.37-0.02c-0.02-10.86,0.19-21.71-0.1-32.55
		c19.42,0.01,38.84-0.03,58.26,0.02C919.38,1339.51,919.54,1298.85,919.41,1258.2z"/>
	<path stroke="#000000" stroke-width="0.0938" d="M920.06,1257.86c19.26-0.03,38.53,0,57.8-0.01c-0.14,10.68-0.08,21.38-0.04,32.07
		c-0.4,0.01-1.2,0.01-1.6,0.02c0.17-10.37,0.31-20.75-0.05-31.11c-18.41-0.27-36.85-0.28-55.26,0c-0.48,12.72-0.05,25.48-0.17,38.22
		c-0.22,27.64,0.27,55.3-0.26,82.93C919.9,1339.28,920.76,1298.55,920.06,1257.86z"/>
	<linearGradient id="SVGID_14_" gradientUnits="userSpaceOnUse" x1="1435.2263" y1="1437.9968" x2="1800.58" y2="1437.9968">
		<stop  offset="0" style="stop-color:#BA8B01"/>
		<stop  offset="0.0438" style="stop-color:#CDAA37"/>
		<stop  offset="0.1121" style="stop-color:#E8D886"/>
		<stop  offset="0.1607" style="stop-color:#F8F4B8"/>
		<stop  offset="0.1847" style="stop-color:#FFFFCB"/>
		<stop  offset="0.2986" style="stop-color:#FFFFCB"/>
		<stop  offset="0.3078" style="stop-color:#FDF9C1"/>
		<stop  offset="0.3415" style="stop-color:#F5E6A0"/>
		<stop  offset="0.374" style="stop-color:#F0D989"/>
		<stop  offset="0.4043" style="stop-color:#EDD17B"/>
		<stop  offset="0.4303" style="stop-color:#ECCE76"/>
		<stop  offset="0.4892" style="stop-color:#A26F14"/>
		<stop  offset="0.6051" style="stop-color:#A26F14"/>
		<stop  offset="0.6074" style="stop-color:#A67418"/>
		<stop  offset="0.624" style="stop-color:#C19234"/>
		<stop  offset="0.6402" style="stop-color:#D4A848"/>
		<stop  offset="0.6558" style="stop-color:#E0B654"/>
		<stop  offset="0.6699" style="stop-color:#E4BA58"/>
		<stop  offset="0.6716" style="stop-color:#D9A94D"/>
		<stop  offset="0.6756" style="stop-color:#C38737"/>
		<stop  offset="0.6793" style="stop-color:#B36F27"/>
		<stop  offset="0.6828" style="stop-color:#A9601D"/>
		<stop  offset="0.6857" style="stop-color:#A65B1A"/>
		<stop  offset="0.6954" style="stop-color:#AA6222"/>
		<stop  offset="0.7104" style="stop-color:#B57637"/>
		<stop  offset="0.7287" style="stop-color:#C6965B"/>
		<stop  offset="0.7498" style="stop-color:#DEC38B"/>
		<stop  offset="0.7728" style="stop-color:#FDFCC9"/>
		<stop  offset="0.7741" style="stop-color:#FFFFCD"/>
		<stop  offset="0.7957" style="stop-color:#FFFFCD"/>
		<stop  offset="0.8468" style="stop-color:#E5BD5D"/>
		<stop  offset="0.8861" style="stop-color:#BB913B"/>
		<stop  offset="0.9116" style="stop-color:#BB913B"/>
		<stop  offset="0.9147" style="stop-color:#BE9337"/>
		<stop  offset="0.925" style="stop-color:#C39830"/>
		<stop  offset="0.9509" style="stop-color:#C5992E"/>
		<stop  offset="1" style="stop-color:#7F470A"/>
	</linearGradient>
	<path fill="url(#SVGID_14_)" stroke="#00CD0D" stroke-width="0.0938" d="M1460.66,1389.75c14.38-10.16,33.56-13,50.34-7.75
		c18.98,5.67,34.57,21.71,39.34,40.99c11.17,0.69,22.42,0.12,33.63,0.31c69.67-0.02,139.35,0.02,209.03-0.01
		c2.51,0.1,5.14-0.44,7.58,0.49c-5.67,10.08-11.32,20.17-17.38,30.03c-72.37-0.48-144.77,0-217.15-0.24
		c-5.1-1.57-10.56-1.05-15.79-0.67c-2.24,10.88-9.09,19.89-16.11,28.17c-5.38,3.76-10.61,7.87-16.71,10.43
		c-6.24,2.68-12.92,4.42-19.68,4.98c-17.88,1.03-35.91-6.29-47.81-19.68c-11.29-12.94-16.81-30.78-14-47.79
		C1438.3,1413.23,1447.52,1398.75,1460.66,1389.75 M1471.72,1418.79c-1.62,2.15-3.8,4.3-3.7,7.21c-2.14,1.6-2.53,4.45-3,6.9
		c-2.25,11.86,3.79,24.56,14.31,30.41l-0.05,0.16c10.18,5.53,23.58,4.83,32.65-2.58c5.54-4.3,9.16-10.65,10.75-17.42
		c2.58-13.58-5.48-28.34-18.64-32.87C1492.89,1406.23,1479.42,1409.61,1471.72,1418.79z"/>
	<path stroke="#000000" stroke-width="0.0938" d="M1468.02,1426c10.09-8.61,22.67-14.56,36.02-15.4
		c13.16,4.53,21.22,19.29,18.64,32.87c-5.27-2.21-10.88-4.1-16.67-3.54c-12.81,0.68-24.3,10.8-26.68,23.38
		c-10.52-5.85-16.56-18.55-14.31-30.41C1465.49,1430.45,1465.88,1427.6,1468.02,1426z"/>
	<linearGradient id="SVGID_15_" gradientUnits="userSpaceOnUse" x1="1173.6486" y1="1545.8616" x2="1652.67" y2="1545.8616">
		<stop  offset="0" style="stop-color:#BA8B01"/>
		<stop  offset="0.0438" style="stop-color:#CDAA37"/>
		<stop  offset="0.1121" style="stop-color:#E8D886"/>
		<stop  offset="0.1607" style="stop-color:#F8F4B8"/>
		<stop  offset="0.1847" style="stop-color:#FFFFCB"/>
		<stop  offset="0.2986" style="stop-color:#FFFFCB"/>
		<stop  offset="0.3078" style="stop-color:#FDF9C1"/>
		<stop  offset="0.3415" style="stop-color:#F5E6A0"/>
		<stop  offset="0.374" style="stop-color:#F0D989"/>
		<stop  offset="0.4043" style="stop-color:#EDD17B"/>
		<stop  offset="0.4303" style="stop-color:#ECCE76"/>
		<stop  offset="0.4892" style="stop-color:#A26F14"/>
		<stop  offset="0.6051" style="stop-color:#A26F14"/>
		<stop  offset="0.6074" style="stop-color:#A67418"/>
		<stop  offset="0.624" style="stop-color:#C19234"/>
		<stop  offset="0.6402" style="stop-color:#D4A848"/>
		<stop  offset="0.6558" style="stop-color:#E0B654"/>
		<stop  offset="0.6699" style="stop-color:#E4BA58"/>
		<stop  offset="0.6716" style="stop-color:#D9A94D"/>
		<stop  offset="0.6756" style="stop-color:#C38737"/>
		<stop  offset="0.6793" style="stop-color:#B36F27"/>
		<stop  offset="0.6828" style="stop-color:#A9601D"/>
		<stop  offset="0.6857" style="stop-color:#A65B1A"/>
		<stop  offset="0.6954" style="stop-color:#AA6222"/>
		<stop  offset="0.7104" style="stop-color:#B57637"/>
		<stop  offset="0.7287" style="stop-color:#C6965B"/>
		<stop  offset="0.7498" style="stop-color:#DEC38B"/>
		<stop  offset="0.7728" style="stop-color:#FDFCC9"/>
		<stop  offset="0.7741" style="stop-color:#FFFFCD"/>
		<stop  offset="0.7957" style="stop-color:#FFFFCD"/>
		<stop  offset="0.8468" style="stop-color:#E5BD5D"/>
		<stop  offset="0.8861" style="stop-color:#BB913B"/>
		<stop  offset="0.9116" style="stop-color:#BB913B"/>
		<stop  offset="0.9147" style="stop-color:#BE9337"/>
		<stop  offset="0.925" style="stop-color:#C39830"/>
		<stop  offset="0.9509" style="stop-color:#C5992E"/>
		<stop  offset="1" style="stop-color:#7F470A"/>
	</linearGradient>
	<path fill="url(#SVGID_15_)" stroke="#00CD0D" stroke-width="0.0938" d="M1216.08,1439.15c17.1-5.02,36.41-1.58,50.69,9.11
		c13.02,9.34,21.67,24.34,23.5,40.24c1.05,8.61,0.11,17.42-2.65,25.65c5.78,3.34,11.55,6.71,17.38,9.97
		c56.34,32.68,112.81,65.16,169.2,97.77c1.47,0.79,2.94,1.9,4.74,1.79c56.36-0.03,112.72,0.05,169.08-0.03
		c1.52,0.17,3.57-0.38,4.65,1.12c-6.44,6.55-12.83,13.15-19.4,19.56c-3.79,3.49-7.13,7.52-11.35,10.51
		c-18.96-0.71-37.97-0.11-56.94-0.31c-24.3-0.05-48.6,0.1-72.89-0.07c-8.63-3.99-19.21,1.45-27.37-4.19
		c-64.16-37.11-128.4-74.09-192.55-111.21c-4.16,2.03-7.45,5.45-11.6,7.52c-6.93,4.2-14.95,5.76-22.72,7.61
		c-8.33-0.25-16.83-0.48-24.74-3.43c-8.74-3.04-16.88-8.06-23.14-14.91c-15.29-15.34-20.36-39.61-12.98-59.9
		C1183.02,1458.3,1198.14,1444.17,1216.08,1439.15 M1212.61,1473.68c-2.82,2.87-6.16,6.03-6.67,10.23
		c-1.68,1.51-2.04,3.88-2.52,5.99c-2.42,11.84,3.44,24.67,13.88,30.71l-0.05,0.12c4,1.91,8.23,3.59,12.72,3.91
		c14.17,1.3,28.32-9.33,30.8-23.4c2.48-11.26-2.56-23.64-12.18-29.97c-2.53-1.57-5.32-3.66-8.43-3.21c-0.83-0.74-1.78-1.21-2.85-1.4
		C1228.57,1464.98,1219.19,1467.71,1212.61,1473.68z"/>
	<path stroke="#000000" stroke-width="0.0938" d="M1550.26,1452.9c5.23-0.38,10.69-0.9,15.79,0.67
		c72.38,0.24,144.78-0.24,217.15,0.24c-6.01,10.21-12.35,20.23-18.81,30.16c-17.15-0.54-34.32-0.06-51.48-0.24
		c-48.67,0.01-97.35,0.01-146.02,0.01c-1.53-0.28-2.82,0.53-2.88,2.14c-5.11,17.98-19.63,32.82-37.34,38.68
		c-15.36,5.37-32.9,3.68-47.06-4.28c-15.99-8.77-27.4-25.37-29.66-43.48c11.9,13.39,29.93,20.71,47.81,19.68
		c7.08,2.47,15.12,2.56,21.99-0.65c6.34-2.9,12.24-7.95,14.4-14.76C1541.17,1472.79,1548.02,1463.78,1550.26,1452.9z"/>
	<path stroke="#000000" stroke-width="0.0938" d="M1220.25,1474.2c6.2-3.27,13.09-4.77,19.91-6.14c3.11-0.45,5.9,1.64,8.43,3.21
		c9.62,6.33,14.66,18.71,12.18,29.97c-6.49-3.9-14.43-4.56-21.71-2.99c-8.48,2.17-15.88,8.34-19.35,16.38c-0.77,2-1.55,4-2.41,5.98
		c-10.44-6.04-16.3-18.87-13.88-30.71c0.48-2.11,0.84-4.48,2.52-5.99C1210.42,1480.28,1215.01,1476.69,1220.25,1474.2z"/>
	<linearGradient id="SVGID_16_" gradientUnits="userSpaceOnUse" x1="255.66" y1="1555.22" x2="682.9749" y2="1555.22">
		<stop  offset="0" style="stop-color:#BA8B01"/>
		<stop  offset="0.0438" style="stop-color:#CDAA37"/>
		<stop  offset="0.1121" style="stop-color:#E8D886"/>
		<stop  offset="0.1607" style="stop-color:#F8F4B8"/>
		<stop  offset="0.1847" style="stop-color:#FFFFCB"/>
		<stop  offset="0.2986" style="stop-color:#FFFFCB"/>
		<stop  offset="0.3078" style="stop-color:#FDF9C1"/>
		<stop  offset="0.3415" style="stop-color:#F5E6A0"/>
		<stop  offset="0.374" style="stop-color:#F0D989"/>
		<stop  offset="0.4043" style="stop-color:#EDD17B"/>
		<stop  offset="0.4303" style="stop-color:#ECCE76"/>
		<stop  offset="0.4892" style="stop-color:#A26F14"/>
		<stop  offset="0.6051" style="stop-color:#A26F14"/>
		<stop  offset="0.6074" style="stop-color:#A67418"/>
		<stop  offset="0.624" style="stop-color:#C19234"/>
		<stop  offset="0.6402" style="stop-color:#D4A848"/>
		<stop  offset="0.6558" style="stop-color:#E0B654"/>
		<stop  offset="0.6699" style="stop-color:#E4BA58"/>
		<stop  offset="0.6716" style="stop-color:#D9A94D"/>
		<stop  offset="0.6756" style="stop-color:#C38737"/>
		<stop  offset="0.6793" style="stop-color:#B36F27"/>
		<stop  offset="0.6828" style="stop-color:#A9601D"/>
		<stop  offset="0.6857" style="stop-color:#A65B1A"/>
		<stop  offset="0.6954" style="stop-color:#AA6222"/>
		<stop  offset="0.7104" style="stop-color:#B57637"/>
		<stop  offset="0.7287" style="stop-color:#C6965B"/>
		<stop  offset="0.7498" style="stop-color:#DEC38B"/>
		<stop  offset="0.7728" style="stop-color:#FDFCC9"/>
		<stop  offset="0.7741" style="stop-color:#FFFFCD"/>
		<stop  offset="0.7957" style="stop-color:#FFFFCD"/>
		<stop  offset="0.8468" style="stop-color:#E5BD5D"/>
		<stop  offset="0.8861" style="stop-color:#BB913B"/>
		<stop  offset="0.9116" style="stop-color:#BB913B"/>
		<stop  offset="0.9147" style="stop-color:#BE9337"/>
		<stop  offset="0.925" style="stop-color:#C39830"/>
		<stop  offset="0.9509" style="stop-color:#C5992E"/>
		<stop  offset="1" style="stop-color:#7F470A"/>
	</linearGradient>
	<path fill="url(#SVGID_16_)" stroke="#00CD0D" stroke-width="0.0938" d="M597.01,1475.85c18.72-10.3,43.21-8.94,60.65,3.44
		c14.04,9.61,23.66,25.64,24.95,42.66c1.46,12.07-1.54,24.52-7.59,35.01c-2.62,4.82-6.46,8.78-9.85,13.04
		c-6.51,5.2-13.46,10.11-21.47,12.71c-4.48,1.66-9.24,2.33-13.86,3.47c-8.3-0.16-16.74-0.49-24.6-3.43
		c-8.58-2.97-16.48-7.96-22.74-14.54c-0.39,0.2-1.16,0.6-1.55,0.79c-36.8,21.16-73.52,42.46-110.3,63.65
		c-6.36,3.25-12.17,8.44-19.64,8.77c-55.73,0.06-111.46-0.04-167.19,0.05c-9.59-9.51-18.96-19.25-28.16-29.15
		c63.46,0.01,126.92,0.08,190.37-0.03c5.09-1.32,9.29-5.01,14-7.32c35.86-20.83,71.87-41.4,107.7-62.26
		c-2.88-12.86-2.42-26.76,3.2-38.83C576.17,1491.97,585.4,1481.81,597.01,1475.85 M598.1,1516.05c-0.24,0.3-0.71,0.91-0.95,1.21
		c-5.26,12.72,0.49,28.42,12.27,35.33l-0.1,0.17c7.29,3.74,15.92,5.34,23.84,2.66c9.99-3.1,18.11-11.94,19.97-22.29
		c2.32-11.02-2.47-23.05-11.72-29.47c-2.52-1.51-5.18-3.77-8.26-3.46c-3.84-2.74-8.76-1.83-13.15-1.75
		C610.54,1500.21,600.94,1506.51,598.1,1516.05z"/>
	<path stroke="#000000" stroke-width="0.0938" d="M1290.27,1488.5c2.43,1.68,3.86,4.34,5.5,6.75c5.57,8.6,8.42,18.71,9.23,28.87
		c-5.83-3.26-11.6-6.63-17.38-9.97C1290.38,1505.92,1291.32,1497.11,1290.27,1488.5z"/>
	<path stroke="#000000" stroke-width="0.0938" d="M633.15,1500.2c3.08-0.31,5.74,1.95,8.26,3.46c9.25,6.42,14.04,18.45,11.72,29.47
		c-7.78-4.09-17.35-4.95-25.53-1.52c-6.11,2.35-11.11,7.08-14.42,12.67c-1.63,2.59-2.04,5.75-3.76,8.31
		c-11.78-6.91-17.53-22.61-12.27-35.33c0.24-0.3,0.71-0.91,0.95-1.21C607.92,1507.44,620.08,1501.53,633.15,1500.2z"/>
	<path stroke="#000000" stroke-width="0.0938" d="M682.61,1521.95c0.25-0.23,0.74-0.68,0.99-0.91c15.23,17.99,18.05,45.41,6.25,65.9
		c-9.7,17.94-29.45,30.06-49.89,30.2c-15.96,0.46-32-6.03-43.08-17.53c-6.22,2.51-11.66,6.59-17.62,9.66
		c-30.18,17.48-60.42,34.87-90.59,52.36c-8.58,4.32-16.51,11.64-26.69,11.25c-39.01-0.07-78.02-0.01-117.03-0.04
		c-9.19,0.2-18.41-0.35-27.59,0.31c-10.73-9.63-21.21-19.54-31.46-29.67c57.71-0.08,115.43-0.03,173.14-0.03
		c1.53,0,3.08-0.28,4.4-1.1c39.54-22.84,79.05-45.72,118.64-68.45c-0.38-1.65-0.76-3.28-1.13-4.9c0.39-0.19,1.16-0.59,1.55-0.79
		c6.26,6.58,14.16,11.57,22.74,14.54c7.86,2.94,16.3,3.27,24.6,3.43c13.4,5.37,30.62-2.51,35.33-16.18
		c3.39-4.26,7.23-8.22,9.85-13.04C681.07,1546.47,684.07,1534.02,682.61,1521.95z"/>
	<path stroke="#000000" stroke-width="0.0938" d="M1188.63,1535.62l1.34,0.23c6.26,6.85,14.4,11.87,23.14,14.91
		c7.91,2.95,16.41,3.18,24.74,3.43c7.87,3.37,17.15,1.29,24.27-2.98c4.31-3.03,8.66-6.88,10.05-12.15
		c64.15,37.12,128.39,74.1,192.55,111.21c8.16,5.64,18.74,0.2,27.37,4.19c24.29,0.17,48.59,0.02,72.89,0.07
		c18.97,0.2,37.98-0.4,56.94,0.31c-2.31,3-5.27,5.38-7.97,8c-7.85,7.21-15.72,14.4-23.79,21.37c-34.73-0.14-69.46,0.14-104.18-0.15
		c-2.69-0.11-5.05-1.53-7.32-2.78c-49.03-28.31-98.05-56.63-147.1-84.91c-15.14-8.95-30.62-17.33-45.56-26.61
		c-4.35,3.58-8.85,7.05-14,9.39c-16.73,8.46-37.55,7.81-53.89-1.27C1202.52,1569.33,1190.99,1553.34,1188.63,1535.62z"/>
	<linearGradient id="SVGID_17_" gradientUnits="userSpaceOnUse" x1="925.8953" y1="1749.4215" x2="1349.29" y2="1749.4215">
		<stop  offset="0" style="stop-color:#BA8B01"/>
		<stop  offset="0.0438" style="stop-color:#CDAA37"/>
		<stop  offset="0.1121" style="stop-color:#E8D886"/>
		<stop  offset="0.1607" style="stop-color:#F8F4B8"/>
		<stop  offset="0.1847" style="stop-color:#FFFFCB"/>
		<stop  offset="0.2986" style="stop-color:#FFFFCB"/>
		<stop  offset="0.3078" style="stop-color:#FDF9C1"/>
		<stop  offset="0.3415" style="stop-color:#F5E6A0"/>
		<stop  offset="0.374" style="stop-color:#F0D989"/>
		<stop  offset="0.4043" style="stop-color:#EDD17B"/>
		<stop  offset="0.4303" style="stop-color:#ECCE76"/>
		<stop  offset="0.4892" style="stop-color:#A26F14"/>
		<stop  offset="0.6051" style="stop-color:#A26F14"/>
		<stop  offset="0.6074" style="stop-color:#A67418"/>
		<stop  offset="0.624" style="stop-color:#C19234"/>
		<stop  offset="0.6402" style="stop-color:#D4A848"/>
		<stop  offset="0.6558" style="stop-color:#E0B654"/>
		<stop  offset="0.6699" style="stop-color:#E4BA58"/>
		<stop  offset="0.6716" style="stop-color:#D9A94D"/>
		<stop  offset="0.6756" style="stop-color:#C38737"/>
		<stop  offset="0.6793" style="stop-color:#B36F27"/>
		<stop  offset="0.6828" style="stop-color:#A9601D"/>
		<stop  offset="0.6857" style="stop-color:#A65B1A"/>
		<stop  offset="0.6954" style="stop-color:#AA6222"/>
		<stop  offset="0.7104" style="stop-color:#B57637"/>
		<stop  offset="0.7287" style="stop-color:#C6965B"/>
		<stop  offset="0.7498" style="stop-color:#DEC38B"/>
		<stop  offset="0.7728" style="stop-color:#FDFCC9"/>
		<stop  offset="0.7741" style="stop-color:#FFFFCD"/>
		<stop  offset="0.7957" style="stop-color:#FFFFCD"/>
		<stop  offset="0.8468" style="stop-color:#E5BD5D"/>
		<stop  offset="0.8861" style="stop-color:#BB913B"/>
		<stop  offset="0.9116" style="stop-color:#BB913B"/>
		<stop  offset="0.9147" style="stop-color:#BE9337"/>
		<stop  offset="0.925" style="stop-color:#C39830"/>
		<stop  offset="0.9509" style="stop-color:#C5992E"/>
		<stop  offset="1" style="stop-color:#7F470A"/>
	</linearGradient>
	<path fill="url(#SVGID_17_)" stroke="#00CD0D" stroke-width="0.0938" d="M959.63,1636.55c19.02-9.28,43.06-6.73,59.86,6.1
		c13.48,9.87,22.1,25.85,23.25,42.5c0.9,9.95-1,20.14-5.35,29.14c5.98,4.08,12.52,7.27,18.68,11.07
		c63.75,36.76,127.46,73.57,191.19,110.37c2.58,1.72,5.79,1.12,8.73,1.19c27.7-0.03,55.4-0.03,83.09,0.01
		c3.4,0.04,6.88-0.37,10.21,0.61c-25.5,11.18-51.33,21.74-77.84,30.31c-3.34-0.53-6.87,0.28-10.02-1.17
		c-7.87-1.94-16.87,1.71-24.14-2.85c-72.04-41.64-144.12-83.2-216.16-124.83c-0.98-0.61-1.93-1.2-2.87-1.79
		c-8.28,6.17-18.32,9.11-28.33,11.01c-7.8-0.23-15.73-0.35-23.19-2.92c-9.92-3.11-18.82-9.01-25.86-16.62
		c-11.48-12.88-17.01-30.82-14.31-47.91C929.31,1661.76,942.11,1644.47,959.63,1636.55 M958.1,1678.04
		c-0.24,0.3-0.72,0.89-0.95,1.19c-5.22,12.71,0.41,28.46,12.24,35.37l-0.09,0.16c7.26,3.82,15.99,5.34,23.89,2.65
		c10-3.04,18.05-11.91,19.89-22.23c2.6-11.76-3.19-24.62-13.53-30.69c-1.98-1.01-3.99-2.67-6.33-2.26c-2.4-1.6-5.34-1.99-8.15-1.96
		C973.77,1660,961.56,1666.91,958.1,1678.04z"/>
	<path stroke="#000000" stroke-width="0.0938" d="M993.22,1662.23c2.34-0.41,4.35,1.25,6.33,2.26
		c10.34,6.07,16.13,18.93,13.53,30.69c-6.78-3.7-14.93-4.66-22.37-2.66c-6.86,1.91-12.84,6.47-16.72,12.41
		c-1.97,3-2.87,6.53-4.6,9.67c-11.83-6.91-17.46-22.66-12.24-35.37c0.23-0.3,0.71-0.89,0.95-1.19
		C967.97,1669.5,980.09,1663.4,993.22,1662.23z"/>
	<path stroke="#000000" stroke-width="0.0938" d="M1043.01,1682.67c10.16,11.46,15.17,27.2,13.98,42.44l-0.92,0.25
		c-6.16-3.8-12.7-6.99-18.68-11.07c4.35-9,6.25-19.19,5.35-29.14C1042.81,1684.53,1042.94,1683.29,1043.01,1682.67z"/>
	<path stroke="#000000" stroke-width="0.0938" d="M940.88,1728.68c7.04,7.61,15.94,13.51,25.86,16.62
		c7.46,2.57,15.39,2.69,23.19,2.92c10.81,4.34,24.28,0,31.2-9.22c72.04,41.63,144.12,83.19,216.16,124.83
		c7.27,4.56,16.27,0.91,24.14,2.85c3.15,1.45,6.68,0.64,10.02,1.17c-14.34,5.45-29.12,9.68-43.81,14.07
		c-0.74-0.83-1.55-1.53-2.43-2.12c-48.86-28.17-97.69-56.4-146.54-84.6c-15.3-9-30.94-17.46-46-26.86
		c-17.36,12.51-41.59,14.46-60.6,4.52C955.38,1764.39,942.8,1747.43,940.88,1728.68z"/>
</g>
</svg>
